<?xml version="1.0" standalone="no"?>
<!DOCTYPE svg PUBLIC "-//W3C//DTD SVG 20010904//EN"
 "http://www.w3.org/TR/2001/REC-SVG-20010904/DTD/svg10.dtd">
<svg version="1.0" xmlns="http://www.w3.org/2000/svg"
 width="1920.000000pt" height="1280.000000pt" viewBox="0 0 1920.000000 1280.000000"
 preserveAspectRatio="xMidYMid meet">
<metadata>
Created by potrace 1.15, written by Peter Selinger 2001-2017
</metadata>
<g transform="translate(0.000000,1280.000000) scale(0.100000,-0.100000)"
fill="#000000" stroke="none">
<path d="M7588 12775 c7 -40 -6 -75 -28 -75 -11 0 -20 5 -20 10 0 6 7 10 15
10 8 0 15 9 15 19 0 30 -19 35 -26 6 -3 -14 -10 -25 -15 -25 -5 0 -9 -9 -9
-20 0 -11 7 -20 15 -20 16 0 20 -12 8 -24 -4 -4 -6 -24 -4 -45 1 -22 -2 -42
-8 -46 -6 -3 -11 -15 -11 -26 0 -14 -7 -19 -24 -19 -14 0 -28 -4 -31 -10 -4
-6 6 -10 24 -10 16 0 32 -6 34 -12 3 -7 6 4 6 25 1 47 17 49 23 2 2 -19 0 -35
-4 -35 -4 0 -8 -11 -8 -24 0 -27 -16 -43 -23 -24 -3 10 -9 9 -22 -4 -17 -15
-16 -18 9 -44 18 -20 26 -24 26 -13 0 22 23 68 37 73 16 7 34 -51 29 -93 -3
-20 -3 -28 0 -18 7 21 44 23 44 2 0 -8 -4 -15 -10 -15 -5 0 -10 -5 -10 -12 0
-7 -12 -25 -27 -40 -20 -21 -23 -28 -11 -28 9 0 19 6 21 13 4 10 6 10 6 0 1
-15 51 -18 51 -3 0 5 -7 13 -16 18 -9 5 -14 14 -10 21 11 18 26 13 26 -9 0
-11 5 -20 10 -20 6 0 10 5 10 11 0 6 9 1 19 -12 l19 -24 -26 -8 c-15 -4 -45
-6 -67 -5 -36 2 -40 0 -40 -22 0 -17 -7 -26 -25 -31 -14 -4 -19 -7 -11 -8 8
-1 22 -8 31 -16 15 -14 19 -14 29 -1 10 12 17 13 33 3 16 -9 22 -9 25 1 8 22
35 14 31 -10 -2 -13 -9 -23 -17 -23 -18 0 -26 -21 -12 -30 6 -3 11 -12 11 -18
0 -7 -4 -6 -10 3 -14 22 -20 9 -22 -49 -2 -41 -7 -55 -25 -67 -18 -11 -23 -24
-23 -55 0 -28 4 -39 13 -36 6 2 11 14 9 27 -5 33 14 16 21 -20 4 -18 13 -30
22 -30 8 0 15 -7 15 -15 0 -8 -9 -15 -20 -15 -11 0 -20 7 -20 15 0 8 -9 15
-20 15 -11 0 -20 -7 -20 -15 0 -8 9 -15 20 -15 15 0 20 -7 20 -25 0 -14 -4
-25 -10 -25 -5 0 -10 -18 -10 -40 0 -22 5 -40 10 -40 6 0 10 18 10 40 0 22 5
40 10 40 6 0 10 -22 10 -48 0 -54 8 -69 24 -48 6 8 27 16 46 18 28 2 34 0 32
-13 -1 -9 5 -22 14 -30 13 -10 17 -10 24 1 7 11 11 11 24 1 13 -11 16 -11 17
0 0 8 5 4 11 -8 8 -17 16 -21 39 -16 26 5 28 3 31 -33 2 -20 9 -39 15 -42 9
-2 11 5 7 27 -4 19 -2 31 4 31 6 0 12 -10 14 -22 2 -13 10 -24 18 -24 8 -1 25
-2 38 -3 12 0 30 -9 40 -18 9 -10 24 -17 32 -17 8 1 21 2 28 3 6 0 12 8 12 16
0 23 18 18 23 -7 l4 -23 2 23 c1 26 10 28 37 7 25 -19 44 -19 44 1 0 13 3 14
15 4 8 -6 19 -9 24 -6 10 7 51 -12 63 -28 4 -6 13 -4 23 4 16 13 16 15 -2 28
-16 13 -15 14 12 7 17 -3 32 -11 33 -16 2 -5 12 -9 22 -9 10 0 22 -5 26 -11 3
-6 15 -9 25 -6 11 3 19 1 19 -4 0 -5 5 -9 10 -9 6 0 10 7 10 15 0 34 20 12 21
-22 1 -32 2 -34 8 -13 5 21 12 25 40 25 19 0 36 -6 38 -12 3 -7 18 -13 35 -13
18 0 37 -8 44 -17 12 -17 13 -16 14 6 0 22 3 23 36 18 43 -7 53 -15 35 -26
-10 -6 -9 -10 4 -15 25 -9 28 -8 22 14 -6 24 8 26 22 3 8 -14 12 -15 25 -4 12
10 16 11 16 1 0 -10 3 -10 14 -1 10 8 16 9 21 1 8 -13 42 -13 47 1 2 7 11 7
28 0 18 -7 20 -10 8 -10 -10 -1 -18 -6 -18 -12 0 -6 8 -8 19 -4 19 6 108 -35
124 -58 5 -7 6 -4 2 10 -3 12 -1 24 5 28 5 3 10 2 10 -3 0 -6 11 -9 25 -8 14
0 25 4 25 8 0 17 35 -2 38 -21 3 -17 7 -20 16 -11 10 7 17 6 26 -5 19 -23 30
-18 31 13 l1 27 7 -25 c5 -18 13 -24 27 -22 10 2 22 8 25 13 8 14 59 -14 59
-33 0 -9 5 -20 10 -23 6 -3 10 -16 10 -28 0 -18 1 -19 13 -5 18 23 67 33 67
13 0 -10 10 -15 30 -15 17 0 30 5 30 10 0 6 -7 10 -15 10 -8 0 -15 4 -15 9 0
5 7 14 15 21 12 10 15 10 15 -4 0 -9 5 -16 10 -16 6 0 10 5 10 10 0 6 5 10 12
10 9 0 9 -3 0 -12 -20 -20 -15 -40 9 -33 12 4 51 8 86 9 59 2 66 0 74 -21 5
-13 12 -23 17 -23 11 0 42 38 42 52 0 6 3 8 7 4 4 -4 8 -17 8 -28 0 -12 6 -23
13 -25 6 -3 12 2 12 11 0 24 19 19 32 -9 11 -26 51 -35 63 -15 11 18 25 10 25
-15 0 -14 4 -25 9 -25 4 0 6 11 3 25 -5 27 15 34 36 13 9 -9 14 -6 21 13 6 15
10 18 10 8 1 -18 21 -29 51 -29 10 0 20 -9 23 -20 5 -18 11 -19 54 -13 26 3
51 11 55 17 5 8 11 7 20 -2 6 -6 30 -12 53 -12 29 0 44 -5 53 -20 8 -13 23
-20 41 -20 17 0 33 -5 37 -11 4 -8 9 -7 15 2 6 10 9 8 9 -8 0 -14 6 -23 15
-23 8 0 15 7 15 15 0 8 5 15 10 15 6 0 10 -7 10 -15 0 -8 5 -15 11 -15 7 0 8
14 4 42 -7 39 -6 41 9 26 9 -9 16 -21 16 -26 0 -16 31 -72 40 -72 5 0 13 8 19
17 8 16 11 15 30 -7 37 -45 28 -60 -34 -60 -30 0 -55 -4 -55 -10 0 -5 10 -10
23 -11 27 -1 46 -5 70 -14 13 -5 17 -2 17 14 0 34 29 25 46 -14 18 -43 17 -45
-1 -45 -8 0 -15 -4 -15 -10 0 -5 -13 -10 -30 -10 -16 0 -30 -4 -30 -9 0 -13
54 -21 61 -9 11 18 79 -13 79 -35 0 -17 -5 -19 -32 -14 -18 3 -40 7 -48 10 -8
2 -12 2 -7 0 4 -3 7 -11 7 -19 0 -8 10 -14 24 -14 27 0 53 -24 37 -34 -6 -4
-22 -4 -36 0 -21 5 -25 3 -25 -15 0 -12 5 -21 10 -21 6 0 5 -6 -2 -14 -13 -14
-38 -4 -38 16 0 10 -25 38 -34 38 -4 0 -4 -11 0 -25 9 -36 -3 -75 -23 -75 -13
0 -14 3 -5 12 7 7 12 23 12 36 0 20 -4 22 -22 17 -27 -9 -31 -12 -46 -47 -10
-23 -9 -28 3 -28 8 0 15 -4 15 -9 0 -6 -23 -7 -54 -4 -44 5 -55 3 -58 -10 -2
-12 -7 -14 -18 -7 -13 9 -13 12 3 21 15 9 16 13 6 26 -10 12 -10 16 2 24 11 7
9 9 -8 9 -15 0 -21 -5 -17 -14 3 -7 -7 -23 -23 -35 -22 -18 -25 -24 -13 -31
12 -7 12 -12 2 -22 -9 -9 -12 -9 -12 5 0 21 -18 21 -44 2 -29 -22 -43 -19 -60
13 l-15 27 6 -32 c3 -21 2 -33 -6 -33 -6 0 -11 5 -11 10 0 6 -5 10 -11 10 -6
0 -9 -7 -6 -15 4 -8 2 -17 -3 -20 -4 -3 -10 1 -13 7 -3 10 -9 11 -26 1 -28
-17 -34 -16 -27 3 5 12 2 15 -10 10 -8 -3 -19 -6 -24 -6 -4 0 -11 -11 -14 -25
-7 -29 -26 -24 -26 6 0 10 -7 19 -15 19 -8 0 -15 -7 -15 -16 0 -13 -3 -14 -14
-5 -10 9 -16 8 -26 -4 -8 -10 -17 -12 -24 -6 -6 5 -26 6 -44 4 -25 -4 -34 -11
-38 -32 -10 -43 -12 -47 -13 -19 -1 23 -7 28 -36 34 -34 6 -63 -4 -37 -13 14
-5 16 -43 2 -43 -5 0 -10 7 -10 15 0 19 -7 18 -49 -4 -33 -18 -34 -17 -59 6
l-25 23 -12 -22 c-8 -15 -8 -27 -2 -36 5 -7 7 -16 3 -19 -4 -4 -11 -1 -15 6
-7 11 -15 11 -41 2 -18 -6 -37 -8 -42 -5 -5 3 -25 3 -44 -1 -26 -4 -34 -10
-30 -21 9 -23 -4 -42 -24 -37 -25 7 -37 -17 -16 -33 10 -7 15 -17 12 -22 -3
-5 1 -15 9 -22 13 -11 15 -7 16 21 0 19 3 28 6 22 2 -7 11 -13 19 -13 14 0 19
17 15 58 -1 16 4 22 19 22 17 0 19 -3 10 -19 -13 -25 -13 -27 6 -45 14 -15 13
-16 -10 -16 -24 0 -26 -4 -26 -40 0 -33 3 -40 20 -40 15 0 20 7 20 26 0 16 5
24 13 21 6 -2 11 -14 10 -26 -2 -12 2 -32 8 -43 8 -14 8 -23 0 -31 -15 -15
-14 -27 4 -27 8 0 15 9 15 20 0 13 5 18 15 14 18 -7 20 -30 3 -38 -10 -5 -10
-7 0 -12 6 -3 12 -14 12 -25 0 -23 -48 -27 -56 -4 -12 30 -27 15 -21 -20 3
-19 2 -48 -3 -64 -5 -18 -5 -31 1 -33 6 -2 7 -11 3 -21 -5 -14 -16 -17 -53
-16 -26 1 -53 -1 -59 -5 -6 -4 -20 -3 -29 3 -13 6 -24 5 -36 -4 -17 -12 -17
-14 -1 -23 14 -8 10 -11 -20 -16 -21 -4 -45 -10 -53 -13 -10 -4 -14 -2 -10 4
4 6 -3 13 -16 17 -33 9 -47 7 -47 -5 0 -6 7 -9 15 -6 8 4 17 2 20 -4 4 -5 -1
-12 -9 -15 -9 -3 -16 -12 -16 -20 0 -24 -19 -15 -22 11 -2 19 -6 22 -18 15
-13 -8 -13 -11 -1 -19 7 -5 10 -14 7 -20 -12 -19 -25 -12 -28 16 -2 22 -8 28
-28 28 -19 0 -26 -6 -28 -24 -3 -21 -7 -23 -45 -17 -23 4 -46 11 -51 16 -11
11 -69 -17 -61 -30 4 -6 -7 -10 -24 -10 -17 0 -31 4 -31 9 0 5 -9 7 -21 4 -12
-4 -16 -9 -10 -12 6 -4 -15 -6 -47 -5 -33 1 -65 -2 -73 -7 -9 -6 0 -9 29 -9
23 0 42 -5 42 -10 0 -6 -27 -9 -63 -8 -35 1 -69 -2 -75 -6 -6 -4 -21 -2 -32 4
-15 8 -27 7 -48 -3 -44 -23 -123 -39 -136 -28 -8 7 -16 4 -26 -9 -11 -15 -15
-16 -27 -5 -19 19 -45 8 -38 -16 5 -14 1 -19 -14 -19 -15 0 -21 6 -21 21 0 11
-4 17 -10 14 -6 -4 -8 -15 -5 -26 4 -11 2 -19 -4 -19 -6 0 -11 7 -11 15 0 23
-41 19 -47 -5 -6 -24 -23 -27 -23 -4 0 10 -4 12 -12 7 -12 -7 -58 -14 -116
-17 -17 -1 -22 -6 -18 -18 5 -22 2 -22 -19 -1 -13 13 -19 13 -25 4 -5 -9 -9
-10 -14 -2 -5 8 -12 7 -22 -4 -9 -8 -25 -14 -37 -14 -17 1 -18 2 -4 6 23 6 22
23 -2 23 -10 0 -21 -7 -25 -15 -7 -18 -86 -21 -86 -3 0 6 -2 9 -5 6 -10 -9 6
-37 23 -41 11 -3 9 -5 -7 -6 -13 0 -29 6 -35 15 -10 14 -15 13 -39 -6 -20 -16
-25 -17 -21 -6 8 22 -14 20 -71 -5 -35 -15 -58 -19 -86 -15 -28 4 -39 3 -39
-6 0 -7 -11 -18 -24 -24 -21 -10 -25 -9 -30 9 -5 20 -6 20 -25 3 -19 -17 -21
-17 -36 -2 -25 25 -44 19 -53 -16 l-9 -33 -11 28 c-7 15 -14 27 -16 27 -3 0
-3 -7 0 -15 5 -12 -3 -15 -32 -16 -22 -1 -46 0 -53 1 -8 1 -20 -5 -25 -12 -6
-8 -24 -18 -39 -22 -26 -6 -28 -5 -22 14 5 15 2 20 -10 20 -11 0 -15 -5 -11
-15 3 -8 1 -15 -4 -15 -17 0 -25 5 -22 13 4 13 -22 7 -72 -17 -32 -15 -44 -26
-35 -30 8 -3 -12 -4 -44 -2 -32 3 -77 -1 -100 -8 -46 -13 -81 -10 -71 6 9 14
-85 1 -103 -14 -9 -7 -18 -7 -28 2 -12 10 -15 10 -15 0 0 -10 -3 -10 -15 0
-12 10 -15 9 -15 -4 0 -14 -11 -16 -80 -14 -59 2 -83 -1 -89 -10 -5 -9 -24
-13 -52 -11 -72 4 -99 0 -99 -15 0 -20 -49 -29 -143 -28 -64 1 -78 -2 -73 -13
8 -21 -13 -29 -40 -15 -19 11 -26 11 -39 0 -13 -11 -18 -11 -24 -1 -6 9 -11 8
-21 -4 -8 -9 -17 -12 -24 -6 -13 10 -76 2 -76 -10 0 -14 -28 -11 -33 4 -4 10
-6 10 -6 0 -1 -15 -48 -18 -53 -4 -2 6 -21 6 -48 0 -59 -12 -62 -13 -85 -26
-14 -8 -26 -8 -38 -2 -12 7 -17 6 -17 -2 0 -8 -13 -10 -40 -6 -30 4 -40 2 -40
-9 0 -10 -12 -14 -40 -14 -22 0 -40 5 -40 10 0 6 -9 2 -21 -9 -23 -21 -72 -34
-77 -20 -6 14 -22 10 -22 -5 0 -11 -9 -13 -37 -9 -21 3 -41 11 -45 17 -7 10
-12 2 -9 -16 0 -4 -16 -10 -37 -13 -20 -3 -45 -10 -54 -16 -13 -6 -18 -6 -18
3 -1 9 -5 8 -13 -3 -18 -23 -67 -34 -67 -14 0 18 -21 20 -38 3 -8 -8 -15 -8
-26 2 -17 13 -51 6 -42 -8 3 -5 -6 -7 -19 -4 -23 4 -30 -5 -26 -31 2 -11 -33
9 -48 27 -13 16 -15 15 -80 -19 -26 -14 -35 -15 -41 -5 -10 16 -30 4 -30 -17
0 -12 -3 -13 -15 -3 -18 15 -37 4 -30 -19 5 -15 -3 -17 -70 -16 -46 1 -86 -3
-101 -12 -14 -7 -30 -10 -36 -7 -16 10 -58 -5 -58 -21 0 -8 -4 -15 -10 -15 -5
0 -10 7 -10 15 0 8 -5 15 -10 15 -6 0 -13 -7 -16 -15 -4 -8 -15 -15 -25 -15
-12 0 -16 5 -13 15 4 8 1 15 -6 15 -6 0 -14 -9 -17 -20 -7 -27 -21 -25 -26 3
-3 22 -4 22 -14 -3 -8 -19 -18 -25 -38 -25 -15 1 -30 7 -35 14 -5 9 -10 10
-14 3 -3 -6 -2 -13 4 -17 5 -3 10 -11 10 -17 0 -7 -4 -7 -12 -1 -24 19 -60 22
-75 7 -8 -8 -19 -11 -24 -8 -18 11 -59 -6 -60 -24 0 -13 -3 -12 -11 6 -13 27
-26 28 -44 5 -8 -11 -13 -13 -14 -5 0 10 -4 10 -21 0 -17 -10 -23 -10 -26 0
-5 14 -33 17 -33 3 0 -5 -9 -7 -20 -4 -11 3 -27 0 -35 -7 -9 -7 -36 -15 -60
-17 -35 -3 -45 0 -45 12 0 15 -21 21 -34 8 -13 -13 -79 -31 -93 -26 -13 5 -13
2 -4 -15 14 -27 14 -32 -3 -32 -8 0 -17 10 -19 23 l-4 22 -2 -22 c-2 -33 -27
-29 -26 5 0 35 -30 38 -31 2 -1 -14 -5 -33 -9 -42 -4 -9 -4 -22 0 -28 3 -5 1
-10 -4 -10 -6 0 -11 6 -11 14 0 7 -10 17 -22 21 l-23 8 23 4 c27 5 29 23 2 23
-10 0 -30 -11 -42 -23 -13 -13 -36 -27 -51 -31 -15 -3 -35 -15 -45 -26 -9 -11
-23 -20 -30 -20 -12 0 -12 3 -2 15 6 8 10 22 7 32 -4 16 -6 15 -12 -4 -4 -13
-14 -23 -21 -23 -8 0 -14 -4 -14 -10 0 -12 -82 17 -92 33 -16 25 -8 -22 9 -51
16 -27 16 -31 1 -54 -16 -24 -16 -24 12 -20 23 3 28 9 27 29 -3 35 21 41 33 8
9 -24 15 -27 50 -23 35 3 38 2 24 -13 -16 -18 -18 -47 -4 -69 7 -11 10 -7 10
19 0 28 3 32 18 26 9 -4 27 -10 38 -12 16 -4 21 -11 18 -26 l-5 -22 10 21 c13
30 27 36 41 19 9 -11 17 -12 31 -4 15 8 25 6 44 -9 13 -11 21 -23 17 -28 -4
-4 6 0 22 10 20 13 31 15 39 7 8 -8 8 -11 -2 -11 -7 0 -9 -4 -6 -10 4 -6 13
-5 26 3 13 8 22 9 27 2 10 -14 73 -36 83 -29 5 3 9 0 9 -5 0 -6 5 -11 10 -11
6 0 10 7 8 16 -2 10 3 19 11 22 10 3 12 0 8 -12 -4 -11 -1 -19 11 -23 9 -4 21
-13 26 -21 6 -10 18 -12 42 -7 27 5 34 3 34 -10 0 -12 6 -15 20 -10 12 4 31 0
44 -9 17 -10 26 -12 34 -4 8 8 15 3 24 -18 22 -50 31 -54 54 -27 15 17 24 21
29 13 4 -6 -1 -17 -10 -24 -9 -6 -15 -21 -13 -31 2 -12 -4 -21 -14 -23 -11 -2
-18 3 -18 12 0 23 -19 30 -27 9 -4 -10 -11 -21 -17 -25 -6 -4 -7 -10 -3 -15 5
-4 12 -1 18 7 6 10 11 12 17 4 4 -6 14 -14 22 -17 8 -3 -2 -6 -23 -6 -25 -1
-36 -5 -31 -12 3 -6 19 -9 35 -5 17 3 29 1 32 -7 3 -9 13 -7 36 6 l31 18 0
-25 c0 -16 -6 -26 -14 -26 -15 0 -26 -21 -26 -51 0 -23 -8 -24 -31 -3 -19 17
-49 13 -49 -7 0 -6 9 -13 20 -16 37 -10 22 -26 -18 -19 -33 5 -42 2 -60 -19
-25 -29 -47 -32 -68 -10 -19 19 -34 19 -34 1 0 -8 9 -18 20 -21 34 -11 23 -30
-17 -30 -32 0 -39 -4 -41 -22 -3 -19 -10 -23 -42 -23 -45 0 -55 -10 -35 -36
17 -23 19 -34 5 -34 -5 0 -10 6 -10 14 0 7 -14 16 -31 20 -46 9 -49 8 -50 -16
0 -22 -1 -22 -8 -3 -7 16 -10 11 -16 -25 -7 -40 -9 -42 -15 -20 l-7 25 -11
-27 c-8 -19 -16 -26 -27 -22 -8 3 -15 8 -15 11 0 3 7 3 15 -1 10 -3 15 1 15
14 0 28 -11 30 -63 13 -42 -14 -64 -33 -37 -33 6 0 10 -4 10 -10 0 -5 -12 -10
-26 -10 -20 0 -24 -4 -19 -19 4 -14 0 -20 -19 -23 -26 -5 -45 17 -23 25 7 2 9
8 5 12 -4 4 -18 -5 -31 -19 -13 -14 -30 -26 -36 -26 -7 0 -10 -4 -7 -8 3 -4
-16 -7 -42 -6 -26 1 -51 -2 -57 -6 -15 -12 -65 0 -65 17 0 10 4 11 19 3 13 -6
28 -7 44 -1 31 12 38 23 26 41 -5 8 -9 10 -9 4 0 -6 -21 -14 -47 -18 -50 -7
-113 -35 -81 -36 18 0 34 -18 25 -27 -3 -3 -42 -7 -86 -9 -62 -3 -87 -1 -105
11 -18 12 -25 13 -28 4 -3 -9 -6 -7 -11 4 -3 9 -2 17 4 17 11 0 -22 49 -34 50
-4 0 -5 -11 -1 -25 4 -15 2 -25 -5 -25 -6 0 -11 5 -11 10 0 6 -9 10 -20 10
-23 0 -24 3 -8 30 18 29 1 37 -22 10 -20 -23 -20 -23 -54 -5 -24 13 -32 23
-29 36 3 10 2 27 -1 36 -6 15 -8 15 -17 3 -8 -13 -11 -13 -22 1 -6 9 -29 19
-49 23 -28 5 -38 12 -38 26 0 10 -6 21 -12 23 -10 4 -9 8 2 16 12 8 5 11 -29
11 -38 0 -42 2 -31 15 10 13 8 19 -14 36 -14 11 -26 25 -26 31 0 6 6 6 15 -2
8 -7 15 -9 15 -5 0 4 -8 14 -18 21 -17 12 -25 74 -9 74 4 0 7 5 7 12 0 9 -3 9
-12 0 -28 -28 -34 -4 -12 52 4 10 1 16 -9 16 -9 0 -17 -8 -19 -17 -3 -17 -4
-17 -10 -1 -5 12 2 27 24 47 24 22 28 31 18 35 -42 13 -44 14 -23 15 29 1 63
35 63 61 0 14 7 20 23 20 25 1 57 22 57 38 0 5 9 8 19 5 13 -3 23 2 30 16 8
13 8 21 2 21 -6 0 -8 7 -4 16 6 15 7 15 18 1 10 -14 13 -11 23 20 8 27 8 39 1
44 -8 4 -7 9 2 13 11 5 11 7 2 12 -7 3 -13 12 -13 20 0 7 -6 11 -14 8 -8 -3
-16 3 -19 15 -3 12 -13 21 -22 21 -9 0 -13 -4 -10 -10 3 -5 3 -15 -1 -21 -4
-7 -11 -1 -19 17 -9 21 -9 31 -1 37 6 5 2 6 -9 2 -52 -19 -61 -17 -86 19 -13
20 -32 36 -41 36 -10 0 -18 5 -18 10 0 6 -6 10 -12 9 -20 -3 -68 12 -68 22 0
5 -8 9 -19 9 -10 0 -24 6 -30 14 -6 7 -25 16 -41 20 -17 3 -30 12 -30 20 0 9
-17 33 -37 55 -55 59 -69 76 -76 95 -5 12 -13 16 -23 12 -13 -5 -15 -1 -12 19
4 17 1 25 -9 25 -9 0 -13 6 -10 15 4 8 2 17 -3 20 -6 4 -10 17 -10 30 0 14 -9
39 -20 57 -14 24 -16 34 -7 40 9 6 9 12 -1 29 -7 11 -16 42 -18 67 -3 26 -10
63 -15 82 -5 19 -12 60 -15 90 -7 73 -30 141 -66 188 -9 13 -20 36 -23 53 -4
16 -11 27 -16 23 -8 -5 -14 17 -10 39 1 5 -8 11 -19 14 -11 3 -23 16 -26 30
-4 13 -19 30 -35 39 -16 8 -29 19 -29 23 0 17 -83 91 -102 91 -10 0 -18 7 -18
15 0 8 -7 15 -16 15 -10 0 -14 -7 -12 -22 2 -18 -4 -25 -28 -32 -23 -7 -38
-23 -60 -65 -28 -55 -40 -70 -96 -128 -16 -16 -28 -37 -28 -47 0 -12 -5 -16
-16 -12 -9 3 -21 3 -27 -1 -7 -4 -3 -9 9 -14 19 -7 19 -7 -1 -14 -28 -11 -78
-65 -59 -65 25 0 15 -29 -13 -36 -42 -10 -73 -32 -73 -54 0 -27 -20 -36 -27
-11 -7 27 -33 27 -33 0 0 -11 -4 -18 -10 -14 -5 3 -7 12 -3 20 3 8 0 15 -6 15
-6 0 -11 -9 -11 -19 0 -11 -4 -23 -10 -26 -5 -3 -10 3 -10 15 0 12 -4 18 -11
15 -6 -4 -8 -14 -5 -22 7 -17 -10 -43 -26 -43 -6 0 -5 6 1 14 10 12 8 17 -9
26 -11 6 -30 8 -40 5 -12 -4 -20 -2 -20 6 0 8 -4 8 -12 2 -28 -22 -70 -21 -94
2 l-22 22 -20 -24 c-16 -20 -23 -22 -46 -13 -37 14 -46 13 -46 -5 0 -18 -31
-20 -48 -3 -9 9 -12 7 -12 -10 0 -12 -4 -22 -10 -22 -5 0 -10 12 -10 27 0 26
0 26 -21 7 -17 -15 -23 -16 -40 -6 -18 11 -20 11 -19 -5 4 -38 0 -64 -10 -58
-7 4 -7 13 0 25 8 16 8 18 -5 14 -8 -4 -15 -14 -15 -23 -1 -14 -3 -13 -15 3
-8 11 -18 16 -22 13 -3 -4 -14 0 -24 9 -11 10 -19 12 -24 5 -3 -6 -1 -11 4
-11 6 0 11 -7 11 -16 0 -12 -7 -15 -28 -11 -16 3 -33 0 -43 -9 -14 -13 -18
-13 -29 0 -11 14 -14 14 -27 1 -18 -19 -63 -20 -63 -1 0 10 -17 13 -69 12 -53
-2 -68 1 -64 11 3 7 14 13 25 13 10 0 17 4 14 9 -4 5 -22 5 -45 -1 -28 -7 -41
-16 -44 -32 -4 -20 -4 -20 -6 2 0 12 -6 22 -12 22 -6 0 -8 -9 -4 -20 7 -23
-12 -28 -21 -6 -3 9 -16 13 -32 11 -15 -2 -42 -4 -59 -4 l-33 -1 0 -1856 c0
-1578 2 -1855 14 -1845 7 6 20 9 28 6 8 -3 21 1 28 10 7 8 18 15 25 15 7 0 24
9 39 21 18 14 34 19 51 15 14 -4 25 -3 25 1 0 9 87 33 133 37 15 1 33 -4 39
-11 9 -11 13 -10 23 4 9 13 17 14 26 7 8 -6 45 -23 82 -39 44 -18 66 -32 63
-41 -6 -16 7 -20 77 -29 61 -8 75 -21 29 -28 l-27 -4 28 -2 c15 0 27 -7 28
-13 0 -7 4 -3 9 10 10 23 34 29 46 11 4 -8 9 -7 15 2 6 10 11 11 17 3 4 -6 21
-13 37 -17 17 -3 38 -9 48 -12 13 -5 16 -3 11 8 -7 20 14 32 48 28 21 -2 28 2
28 14 0 14 3 15 15 5 8 -7 15 -9 15 -5 0 4 6 2 14 -4 9 -7 15 -8 18 -2 2 6 47
4 122 -6 86 -11 120 -12 125 -4 5 8 30 9 84 3 42 -4 77 -5 77 -1 0 8 52 -1 67
-13 7 -6 14 -5 18 2 4 7 11 8 18 2 14 -12 167 -21 161 -10 -9 14 24 8 39 -7 9
-8 17 -11 19 -6 4 11 108 24 108 13 0 -5 22 -7 49 -4 27 2 58 -1 69 -7 11 -6
71 -14 134 -17 62 -4 127 -7 143 -8 37 -3 55 3 55 16 0 22 32 35 56 24 13 -6
24 -14 24 -18 0 -3 14 -1 30 5 17 6 30 17 30 24 0 7 5 13 10 13 6 0 10 -7 10
-15 0 -8 7 -15 15 -15 8 0 14 6 13 13 -2 7 9 12 29 13 18 0 36 3 39 7 4 4 16
7 26 7 10 0 18 7 18 15 0 11 -7 14 -24 9 -13 -3 -27 -1 -30 5 -5 7 4 11 23 11
29 0 31 2 31 40 0 38 1 40 32 40 30 0 31 0 13 20 -15 17 -16 22 -4 36 14 17
15 20 17 62 1 15 10 26 22 29 17 5 20 14 20 58 0 32 -5 55 -12 57 -26 9 4 27
34 21 23 -5 30 -3 26 8 -2 7 -15 16 -29 20 -14 4 5 7 49 8 78 1 89 14 22 25
-38 6 -57 26 -25 26 8 0 15 5 15 10 0 6 7 10 15 10 13 0 14 4 3 23 -10 19 -13
20 -16 5 -5 -23 -32 -23 -32 0 0 9 -3 27 -6 40 -4 13 -2 22 5 22 6 0 11 -7 11
-15 0 -8 5 -15 10 -15 6 0 10 7 10 16 0 10 6 14 15 10 20 -7 20 18 0 34 -17
14 -20 56 -4 66 6 3 16 1 22 -5 8 -8 6 -11 -8 -11 -16 0 -13 -7 17 -37 20 -21
38 -46 40 -56 3 -17 4 -16 20 3 17 19 17 20 -2 20 -16 0 -20 7 -20 30 0 17 -5
30 -11 30 -5 0 -7 5 -4 10 9 15 37 -9 31 -27 -3 -7 1 -13 8 -13 20 0 26 24 15
62 -13 48 -11 58 12 58 19 0 21 -4 16 -40 -3 -22 -1 -40 4 -40 5 0 9 9 9 20 0
11 7 23 15 26 22 9 18 18 -15 32 -17 8 -30 20 -30 27 0 17 28 27 32 13 4 -12
28 -2 28 11 0 4 -10 13 -22 19 -23 11 -23 11 -2 11 12 1 27 8 34 16 7 8 19 15
27 15 11 0 14 7 11 25 -3 14 -2 25 3 25 12 0 21 -38 14 -61 -6 -17 -9 -19 -17
-8 -8 12 -9 11 -5 -1 2 -8 9 -15 15 -14 7 1 26 2 42 3 20 1 30 6 30 17 0 13
-3 14 -14 5 -11 -9 -15 -8 -20 5 -8 20 8 51 18 35 4 -6 27 -11 52 -11 39 0 44
-3 45 -22 0 -20 2 -19 16 10 20 40 27 40 43 2 10 -25 15 -28 31 -19 10 5 22
21 25 34 5 21 12 25 46 25 l39 0 -18 -24 c-10 -13 -20 -20 -21 -15 -6 15 -22
-1 -22 -22 0 -14 7 -19 24 -19 14 0 28 5 31 10 10 16 28 12 21 -5 -3 -9 0 -15
7 -15 7 0 17 -12 23 -26 6 -19 17 -28 35 -30 23 -2 28 2 33 28 4 20 1 35 -10
45 -8 9 -13 22 -10 30 3 8 6 17 6 19 0 2 5 4 10 4 6 0 10 -10 10 -23 0 -13 3
-27 7 -30 11 -11 14 -127 3 -147 -7 -13 -6 -19 3 -23 8 -3 18 10 26 36 9 29 9
43 2 45 -8 3 -8 9 -1 23 7 13 7 25 1 38 -8 15 -7 20 5 25 25 9 26 8 19 -24 -3
-16 -2 -37 4 -47 6 -10 11 -13 11 -6 0 7 7 10 15 6 9 -3 15 -2 14 3 -1 5 -1
21 0 37 1 20 6 27 22 27 15 0 19 -5 15 -17 -3 -10 1 -29 9 -43 13 -22 14 -23
15 -5 0 15 2 17 9 6 8 -12 -3 -89 -14 -100 -3 -2 -20 13 -40 34 -19 21 -36 37
-38 34 -2 -2 -7 -19 -10 -36 -6 -32 -5 -33 25 -33 18 0 36 -7 44 -17 8 -11 13
-13 14 -5 0 7 13 12 33 12 21 0 28 3 19 9 -8 5 -13 22 -11 42 1 19 1 54 0 79
-2 42 -3 44 -16 26 -15 -20 -15 -20 -15 0 0 21 38 60 48 49 4 -3 0 -10 -7 -14
-10 -6 -10 -13 -2 -28 6 -12 10 -33 10 -49 -1 -33 22 -104 33 -104 7 0 13 58
9 83 -2 12 13 7 38 -14 21 -17 22 -22 10 -29 -18 -12 -21 -50 -3 -43 8 3 14
-2 14 -11 0 -9 6 -25 13 -36 10 -17 9 -22 -3 -31 -11 -8 -1 -9 37 -6 29 2 56
0 62 -6 6 -6 18 -3 33 8 22 17 21 17 -39 11 -42 -4 -63 -2 -63 5 0 6 9 13 20
16 16 4 19 11 14 27 -4 11 -11 24 -17 27 -11 8 -2 39 11 39 5 0 17 -9 27 -20
21 -23 65 -27 65 -6 0 9 -7 12 -21 9 -16 -5 -20 -2 -18 12 6 29 25 28 44 -2
12 -18 14 -28 7 -31 -7 -2 -12 -15 -12 -28 0 -17 6 -24 20 -24 21 0 40 -27 40
-59 0 -32 19 -35 32 -5 10 22 10 28 0 32 -6 2 -12 10 -12 18 0 11 4 12 19 5
14 -8 22 -7 31 4 17 21 30 19 30 -5 0 -11 -6 -20 -13 -20 -18 0 -37 -59 -30
-92 6 -30 21 -36 41 -16 16 16 15 28 -3 28 -19 0 -19 14 2 53 9 18 17 40 17
49 1 10 6 18 11 18 15 2 23 -43 12 -58 -8 -10 -7 -16 2 -22 8 -4 10 -13 5 -21
-4 -7 -8 -24 -9 -38 0 -13 -6 -26 -13 -29 -15 -5 -16 -24 -1 -39 15 -15 39 -5
33 12 -3 7 -1 16 5 20 6 3 11 19 11 35 0 23 4 27 19 23 12 -3 20 2 24 16 6 26
23 27 37 2 9 -17 5 -20 -30 -26 -41 -7 -56 -25 -20 -25 11 0 20 -5 20 -11 0
-6 -9 -9 -20 -6 -14 4 -20 0 -20 -12 0 -16 6 -17 48 -11 44 7 61 1 62 -22 0
-12 -28 -9 -32 2 -6 19 -59 -13 -54 -32 2 -11 -2 -18 -10 -18 -8 0 -14 7 -14
15 0 10 -10 15 -30 15 -16 0 -30 -4 -30 -10 0 -5 9 -10 20 -10 11 0 20 -4 20
-10 0 -5 -7 -10 -15 -10 -22 0 -18 -21 5 -27 22 -6 26 -18 10 -28 -6 -4 -4
-12 5 -22 12 -12 19 -13 30 -3 19 16 19 31 0 24 -20 -8 -19 13 0 33 14 14 18
14 34 -1 22 -20 35 -21 28 -1 -4 8 -1 17 5 21 7 4 8 3 4 -4 -4 -7 -1 -12 8
-12 8 0 16 -5 18 -12 8 -22 28 3 22 27 -4 17 0 26 15 35 18 9 19 14 10 31 -6
12 -8 23 -5 27 3 3 6 0 6 -6 0 -16 43 -15 58 0 6 6 15 8 19 4 4 -4 2 -10 -5
-15 -8 -5 -6 -12 8 -24 11 -9 22 -17 24 -17 3 0 10 17 17 38 6 20 18 41 25 45
20 12 17 22 -11 35 -19 9 -25 19 -25 41 0 18 -7 35 -17 41 -17 11 -17 11 0 6
9 -3 17 -1 17 4 0 6 4 10 8 10 5 0 9 -19 10 -42 2 -44 20 -68 53 -68 9 0 20
-7 23 -16 10 -25 24 -7 40 50 9 30 22 56 29 59 16 6 -24 45 -41 39 -15 -5 -16
14 -1 23 6 4 16 0 22 -8 7 -9 24 -19 40 -23 22 -5 26 -3 21 10 -3 9 -12 16
-20 16 -8 0 -14 5 -14 10 0 6 7 10 15 10 8 0 15 -5 15 -11 0 -6 9 -8 20 -4 16
5 20 2 20 -14 0 -12 2 -21 4 -21 14 0 97 99 102 121 3 15 19 41 35 58 24 27
33 30 56 24 31 -9 254 -6 318 3 22 4 45 10 51 15 6 5 24 8 40 7 16 -1 70 4
119 10 133 17 312 23 378 14 51 -8 64 -6 105 15 26 13 75 46 109 74 113 92
199 98 261 17 35 -46 42 -99 17 -132 -8 -11 -15 -28 -15 -38 0 -10 -10 -35
-23 -56 -12 -20 -29 -49 -36 -64 -8 -16 -20 -28 -27 -28 -15 0 -39 -38 -30
-47 3 -3 12 0 21 7 12 10 16 9 22 -6 10 -27 36 -54 50 -54 7 0 13 -4 13 -10 0
-5 3 -9 8 -8 4 1 31 -6 61 -16 40 -14 59 -16 76 -8 17 8 29 6 55 -9 38 -23 67
-17 82 17 14 31 28 31 28 0 0 -34 12 -38 53 -21 66 27 100 92 68 127 -12 12
-21 25 -21 30 0 4 -18 -2 -41 -14 -35 -18 -45 -19 -79 -9 -39 12 -56 34 -76
101 -3 13 -17 33 -30 43 -36 28 -30 60 21 117 45 51 56 72 33 67 -21 -4 -20
35 1 64 12 16 19 34 15 40 -3 6 9 26 27 45 22 23 35 30 40 22 6 -9 11 -9 21 0
16 13 58 12 58 -1 0 -5 8 -6 18 -3 9 3 32 -3 50 -14 25 -15 32 -27 32 -50 0
-20 5 -30 15 -30 8 0 72 41 142 91 71 50 148 103 173 117 25 14 52 31 60 38 8
6 53 32 100 57 130 68 182 97 203 112 26 19 105 154 187 323 110 226 212 342
360 410 77 35 227 45 365 25 121 -18 269 -83 305 -133 l21 -30 -25 0 c-15 0
-45 8 -69 19 -103 46 -142 55 -232 55 -64 0 -99 -4 -120 -16 -16 -8 -41 -21
-55 -27 -14 -6 -54 -36 -90 -66 -36 -30 -69 -55 -73 -55 -13 0 -67 -43 -67
-54 0 -13 -188 -195 -195 -188 -3 3 -5 -3 -5 -12 0 -10 -8 -28 -17 -41 -10
-12 -25 -33 -33 -45 -8 -13 -30 -43 -47 -67 -18 -24 -33 -48 -33 -54 0 -5 -11
-21 -25 -35 -14 -14 -32 -39 -40 -57 -8 -18 -28 -52 -44 -77 -16 -25 -30 -51
-30 -59 -1 -8 -23 -38 -51 -66 -27 -29 -52 -66 -56 -81 -4 -16 -15 -41 -25
-56 -11 -14 -19 -38 -19 -54 0 -19 -12 -37 -41 -63 -23 -19 -52 -58 -65 -86
-13 -27 -28 -57 -34 -65 -18 -29 -41 -87 -43 -109 -1 -11 -5 -21 -10 -21 -14
0 -107 -100 -107 -115 0 -7 -9 -15 -20 -18 -11 -3 -20 -14 -20 -25 0 -22 -30
-52 -52 -52 -9 0 -19 -11 -22 -25 -4 -14 -13 -25 -21 -25 -17 0 -39 -36 -30
-50 3 -6 1 -10 -4 -10 -6 0 -11 9 -11 21 0 27 -22 20 -38 -14 -7 -15 -27 -33
-45 -42 -19 -9 -37 -28 -44 -45 -6 -17 -18 -30 -27 -30 -13 0 -15 -8 -12 -35
3 -19 1 -35 -4 -35 -5 0 -16 -3 -26 -7 -14 -5 -16 -2 -11 16 4 17 2 21 -11 19
-26 -5 -28 -38 -3 -45 12 -3 21 -9 21 -13 0 -5 13 -5 30 0 l29 8 -16 -24 c-9
-14 -22 -23 -29 -20 -18 7 -18 -8 -1 -26 7 -7 12 -34 12 -62 -1 -44 -4 -49
-32 -61 -17 -7 -34 -11 -37 -8 -3 3 -16 -8 -30 -23 -20 -23 -27 -27 -37 -16
-11 10 -9 12 6 12 15 0 16 3 7 12 -17 17 -15 33 2 19 11 -9 15 -8 20 5 3 8 6
17 6 19 0 1 -16 -1 -35 -5 -38 -9 -54 2 -36 24 8 10 7 17 -4 26 -13 10 -15 9
-15 -9 0 -25 -22 -28 -41 -4 -8 9 -13 18 -11 20 10 14 -3 23 -32 23 -19 0 -38
5 -41 10 -4 6 -12 10 -18 9 -7 -1 -25 3 -40 9 -39 17 -43 15 -16 -7 l24 -19
-26 5 c-22 4 -27 0 -33 -21 -9 -35 -22 -33 -35 5 -9 28 -9 30 9 24 12 -4 20
-2 20 4 0 6 -11 11 -24 11 -22 0 -24 -3 -20 -40 3 -38 2 -40 -24 -39 -15 0
-21 3 -14 6 13 5 17 23 5 23 -5 0 -14 -4 -22 -9 -12 -8 -13 -12 -1 -25 15 -19
7 -32 -12 -20 -7 5 -24 10 -38 11 -24 3 -24 3 -6 -12 11 -8 25 -15 32 -15 7 0
10 -9 8 -22 -2 -13 -2 -17 2 -10 3 6 11 12 17 12 8 0 7 -4 -1 -12 -7 -7 -12
-20 -12 -31 0 -10 -4 -16 -10 -12 -5 3 -7 12 -3 20 3 8 0 15 -6 15 -6 0 -10 3
-10 8 4 22 -3 32 -23 32 -16 0 -19 -3 -11 -11 14 -14 6 -39 -12 -39 -10 0 -12
-14 -8 -57 3 -32 2 -55 -2 -51 -8 8 -35 -15 -35 -30 0 -5 6 -15 14 -21 18 -15
17 -53 -1 -47 -18 7 -44 -4 -37 -15 3 -5 -2 -19 -10 -31 -11 -16 -13 -25 -5
-35 9 -10 6 -15 -12 -22 l-24 -9 30 -13 c28 -12 29 -13 8 -16 -13 -3 -23 -9
-23 -14 0 -12 -33 -12 -46 1 -12 12 -44 3 -44 -12 0 -5 -8 -7 -19 -3 -17 5
-37 -17 -33 -37 3 -14 -19 -8 -24 6 -3 8 -12 12 -19 10 -8 -3 -11 -12 -9 -19
3 -7 0 -16 -7 -21 -7 -4 -10 -3 -6 3 11 18 -16 32 -41 22 -19 -7 -21 -12 -12
-29 12 -22 5 -44 -10 -35 -11 7 -7 55 5 75 6 9 3 10 -14 0 -12 -6 -27 -22 -33
-36 -8 -17 -17 -23 -30 -18 -12 3 -18 0 -18 -10 0 -8 -7 -22 -16 -30 -14 -15
-13 -17 8 -25 27 -10 39 -6 32 12 -2 7 5 22 17 33 l21 19 -7 -58 c-6 -49 -5
-57 9 -57 9 0 16 -4 16 -10 0 -14 -4 -13 -47 11 -24 13 -39 17 -41 10 -2 -6
-13 -11 -24 -11 -11 0 -22 -8 -25 -20 -3 -11 -12 -20 -20 -20 -10 0 -13 6 -9
16 3 9 6 20 6 25 0 6 4 7 10 4 13 -8 50 12 50 27 0 9 -3 9 -12 0 -17 -17 -38
-15 -38 3 0 18 -5 18 -30 5 -13 -7 -21 -7 -25 0 -3 5 -14 10 -23 10 -11 -1 -8
-6 11 -16 25 -13 27 -19 21 -47 -8 -40 -9 -41 -30 -33 -13 5 -14 9 -4 21 7 9
8 15 2 15 -26 0 -21 -64 7 -88 14 -11 13 -12 -9 -6 -14 3 -35 12 -47 20 -29
18 -33 18 -33 -6 0 -11 -5 -20 -10 -20 -6 0 -10 -8 -8 -17 2 -14 -3 -17 -26
-15 -23 3 -28 1 -23 -12 5 -11 1 -16 -14 -16 -15 0 -19 5 -14 19 4 12 0 21
-11 25 -13 5 -15 2 -11 -14 6 -23 -3 -26 -22 -7 -10 9 -15 9 -18 0 -2 -7 -12
-9 -20 -6 -12 5 -15 2 -10 -10 5 -13 1 -17 -19 -17 -32 0 -23 -15 21 -36 19
-9 35 -23 35 -30 0 -19 -7 -18 -30 4 -13 12 -30 17 -50 14 -39 -6 -38 -17 1
-31 27 -9 30 -13 18 -27 -12 -14 -14 -14 -21 5 -4 12 -15 21 -25 20 -24 -1
-71 -17 -55 -18 6 -1 12 -6 12 -12 0 -6 -8 -9 -17 -7 -10 2 -18 11 -18 21 0
18 -5 20 -30 12 -8 -3 -22 -7 -30 -10 -8 -2 -15 -9 -15 -14 0 -6 6 -8 14 -5 8
3 17 1 21 -5 3 -6 1 -11 -5 -11 -7 0 -10 -6 -7 -12 2 -7 -2 -18 -10 -23 -8 -6
-15 -20 -16 -32 -1 -18 -4 -20 -20 -11 -15 7 -20 6 -24 -10 -4 -18 -7 -19 -34
-5 -16 8 -35 12 -42 10 -6 -3 2 -8 20 -12 18 -4 35 -15 38 -26 3 -10 12 -16
20 -13 7 3 18 -4 25 -15 9 -18 8 -21 -9 -21 -10 0 -21 7 -25 15 -10 27 -52 18
-74 -17 -18 -29 -19 -33 -5 -43 27 -20 -3 -28 -32 -9 -28 18 -30 16 -13 -21 9
-19 9 -28 0 -37 -9 -9 -12 -9 -12 0 0 6 -7 9 -16 5 -13 -5 -15 -2 -9 17 5 16
4 21 -6 18 -8 -3 -14 -11 -14 -19 0 -8 -4 -18 -10 -22 -6 -5 -3 -7 7 -4 9 3
19 0 21 -7 5 -12 0 -14 -43 -18 -11 -1 -20 -5 -20 -8 0 -10 41 -31 50 -25 6 4
13 -2 17 -12 3 -10 13 -22 20 -26 21 -13 5 -29 -17 -17 -16 8 -18 8 -14 -4 8
-21 -4 -36 -21 -29 -18 6 -20 34 -3 51 9 9 9 12 1 12 -7 0 -15 -9 -18 -20 -4
-12 -14 -19 -23 -18 -9 2 -18 -5 -20 -14 -2 -11 3 -18 12 -18 9 0 16 -7 16
-15 0 -16 -12 -20 -24 -8 -12 12 -40 12 -48 0 -4 -6 -5 -22 -1 -35 4 -17 2
-21 -10 -17 -19 8 -31 -23 -16 -41 9 -11 7 -14 -9 -14 -23 0 -42 27 -34 49 3
8 -1 12 -9 9 -8 -3 -15 -22 -17 -47 -2 -25 -9 -44 -18 -48 -8 -3 -14 -16 -14
-30 0 -20 -4 -23 -20 -18 -11 4 -20 2 -20 -4 0 -6 3 -11 8 -11 4 0 13 -9 20
-20 15 -25 0 -26 -24 -3 -17 17 -17 16 -10 -10 8 -32 -3 -35 -27 -6 -10 11
-21 18 -25 14 -4 -4 3 -14 16 -22 30 -21 28 -33 -5 -31 -34 3 -43 14 -43 54 0
22 6 34 23 42 18 9 19 11 4 11 -23 1 -51 -25 -42 -39 3 -5 -1 -10 -9 -10 -9 0
-16 -6 -16 -14 0 -8 -5 -16 -12 -18 -16 -6 -1 -28 19 -28 12 0 13 3 4 14 -8
10 -9 16 -1 21 10 6 12 -2 14 -57 2 -24 -2 -28 -26 -28 -30 0 -35 9 -16 28 10
10 10 15 -2 22 -11 7 -16 5 -18 -6 -2 -9 -10 -13 -17 -10 -8 2 -19 -2 -25 -9
-7 -8 -16 -12 -21 -9 -13 8 -11 -20 3 -34 7 -7 20 -12 30 -12 12 0 18 -8 18
-25 0 -22 -2 -24 -26 -15 -36 14 -51 12 -58 -6 -5 -14 -4 -15 7 -5 11 9 17 8
28 -5 10 -13 10 -17 -1 -24 -12 -7 -12 -12 2 -27 13 -15 14 -20 3 -30 -7 -6
-16 -9 -19 -6 -3 4 -6 0 -6 -8 0 -8 -8 -1 -19 14 -16 24 -19 26 -31 12 -19
-22 -37 -18 -42 10 -4 17 -1 25 9 25 15 0 10 36 -9 55 -6 6 -7 4 -3 -6 4 -10
0 -19 -9 -22 -9 -4 -16 -18 -16 -33 0 -20 -3 -24 -12 -16 -7 5 -21 11 -31 13
-17 4 -16 7 7 34 33 38 33 51 -1 50 -24 0 -27 -4 -25 -25 4 -21 2 -23 -13 -10
-13 11 -18 11 -24 1 -6 -9 -11 -8 -21 4 -7 8 -10 16 -6 16 3 1 11 3 16 4 6 1
16 3 22 4 20 2 -25 27 -61 34 -30 6 -33 5 -28 -14 4 -17 3 -19 -6 -10 -17 17
-25 14 -29 -11 -4 -25 -28 -37 -28 -14 0 9 14 30 30 48 29 30 42 67 19 52 -10
-6 -8 10 8 54 3 6 -2 12 -11 12 -9 0 -16 -6 -14 -12 3 -15 -3 -18 -32 -18 -11
0 -20 4 -20 10 0 5 6 7 13 4 8 -3 20 2 27 11 11 13 10 18 -5 29 -16 11 -15 14
15 26 25 10 33 11 40 1 5 -10 9 -9 13 4 4 9 3 14 -2 10 -5 -3 -17 2 -26 12
-14 14 -18 14 -26 2 -5 -8 -9 -10 -9 -4 0 5 -7 -1 -16 -14 -12 -17 -13 -26 -5
-34 17 -17 13 -29 -9 -22 -14 5 -20 2 -20 -9 0 -9 -4 -16 -10 -16 -5 0 -10 7
-10 16 0 14 -2 15 -17 3 -15 -12 -16 -12 -10 3 4 12 -2 19 -24 27 -18 6 -29 6
-29 0 0 -5 7 -9 15 -9 21 0 19 -23 -6 -54 l-21 -27 21 -23 c23 -24 27 -36 11
-36 -5 0 -10 7 -10 15 0 18 -12 19 -28 3 -9 -9 -12 -9 -12 -1 0 7 5 15 10 18
6 4 7 12 1 22 -6 11 -5 21 3 29 31 35 36 44 27 44 -25 0 -62 -26 -67 -47 -4
-12 -10 -20 -16 -17 -10 7 -48 -29 -48 -46 0 -5 -4 -10 -9 -10 -5 0 -12 -10
-16 -23 -6 -19 -8 -19 -12 -4 -2 9 -8 17 -13 17 -5 0 -7 -6 -4 -14 3 -8 1 -17
-5 -21 -6 -3 -11 1 -11 9 0 20 -7 20 -26 1 -21 -20 -9 -35 22 -29 20 4 25 1
22 -12 -2 -10 -9 -19 -17 -22 -8 -3 -11 0 -7 7 4 6 2 11 -4 11 -7 0 -10 -6 -7
-12 2 -7 18 -12 35 -12 30 1 30 1 15 -22 -19 -29 -23 -30 -16 -4 4 15 2 19 -9
15 -20 -8 -40 -46 -41 -79 -2 -21 -6 -25 -22 -20 -16 5 -18 4 -7 -7 19 -20 14
-31 -8 -19 -11 6 -18 15 -15 19 6 10 -34 23 -47 15 -14 -9 -9 -22 13 -29 16
-5 18 -9 9 -15 -7 -4 -9 -13 -6 -19 4 -6 2 -11 -3 -11 -6 0 -11 -5 -11 -12 0
-6 10 -2 23 10 l22 21 -1 -32 c-1 -18 -7 -31 -13 -29 -10 2 -15 -11 -12 -31 1
-5 -3 -5 -9 -2 -6 4 -9 13 -7 20 3 6 -3 19 -14 28 -18 16 -19 16 -19 -4 0 -12
12 -32 28 -45 15 -13 43 -37 62 -54 33 -30 33 -30 5 -14 -16 10 -38 25 -49 33
-17 15 -18 14 -15 -9 2 -14 8 -24 13 -22 5 2 19 -14 30 -36 45 -87 134 -204
113 -149 -3 10 -2 17 3 17 6 0 10 -9 10 -20 0 -20 50 -110 62 -110 3 0 9 8 11
18 3 9 5 -1 6 -23 0 -35 -1 -38 -13 -22 -17 22 -30 22 -22 0 6 -17 -1 -10 -50
52 -9 11 -20 32 -26 48 -5 15 -13 27 -17 27 -4 0 -22 21 -39 47 -17 27 -49 68
-71 92 l-40 45 -7 -29 c-6 -26 -8 -27 -20 -10 -7 10 -11 21 -9 26 7 10 -13 59
-24 59 -21 0 -20 -31 2 -40 13 -5 16 -9 7 -10 -8 0 -21 -4 -29 -9 -12 -8 -12
-12 2 -26 10 -9 17 -24 17 -33 0 -12 -8 -7 -29 16 -33 36 -47 42 -32 13 8 -14
7 -20 -4 -25 -9 -3 -15 -20 -16 -43 -1 -38 -1 -38 -12 -10 -6 15 -14 27 -18
27 -4 0 -5 9 -2 20 4 15 0 20 -13 20 -14 0 -15 3 -6 8 15 10 2 55 -19 68 -8 4
-10 3 -5 -4 4 -7 2 -12 -4 -12 -8 0 -9 11 -5 32 7 32 6 32 -11 15 -16 -15 -17
-21 -6 -49 12 -32 8 -53 -8 -43 -12 7 -52 -13 -63 -32 -5 -7 -12 -11 -18 -8
-5 4 -9 -1 -9 -9 0 -8 4 -17 9 -20 15 -9 12 -96 -3 -96 -7 0 -18 -15 -23 -32
-5 -18 -15 -32 -21 -30 -7 1 -12 -7 -12 -17 0 -11 -4 -22 -9 -25 -5 -4 -17
-31 -26 -61 -18 -57 -24 -62 -56 -45 -16 9 -19 7 -16 -12 1 -15 -3 -23 -13
-23 -8 0 -18 -4 -22 -10 -5 -6 -8 -4 -8 5 0 25 29 60 50 60 19 0 24 15 32 89
2 14 9 26 16 29 11 3 12 0 3 -16 -8 -15 -7 -21 3 -25 10 -4 13 3 12 25 -1 16
4 41 11 55 7 14 11 29 8 34 -3 4 4 13 15 19 13 7 20 21 20 41 0 25 -2 28 -14
17 -8 -7 -14 -15 -14 -18 1 -22 -5 -27 -22 -23 -12 3 -19 8 -16 10 3 3 -2 12
-10 20 -8 8 -11 19 -8 25 5 7 11 5 19 -5 7 -10 14 -17 17 -17 3 0 2 88 -1 97
-3 7 -41 -33 -41 -43 0 -7 -8 -15 -17 -18 -22 -9 -48 23 -33 38 15 15 12 46
-4 46 -9 0 -12 -7 -9 -20 3 -11 1 -26 -5 -33 -7 -8 -7 -18 -2 -27 6 -8 10 -11
10 -7 0 4 6 2 14 -5 8 -7 12 -17 9 -22 -3 -4 -9 -2 -13 4 -9 14 -40 7 -40 -9
0 -5 13 -15 29 -22 25 -11 28 -16 19 -32 -15 -29 -2 -32 17 -3 10 14 21 26 26
26 5 0 2 -11 -7 -25 -8 -13 -13 -28 -10 -33 3 -6 -3 -12 -14 -15 -11 -3 -23
-13 -27 -24 -3 -10 -15 -30 -25 -45 -10 -14 -18 -36 -18 -48 0 -16 -4 -20 -15
-16 -10 3 -15 -1 -15 -13 0 -9 -11 -27 -25 -39 -14 -12 -25 -19 -25 -16 0 4
-7 1 -15 -6 -12 -10 -15 -10 -15 4 0 9 -5 16 -11 16 -7 0 -5 10 6 26 9 14 14
28 12 31 -3 3 -13 -10 -22 -29 -10 -18 -25 -41 -33 -51 -14 -15 -14 -18 -2
-15 8 2 17 6 20 10 3 3 6 -14 7 -39 1 -30 -5 -57 -19 -81 -12 -21 -28 -50 -36
-65 -8 -16 -16 -26 -18 -24 -6 5 10 42 37 86 23 39 16 56 -11 24 -16 -20 -19
-21 -24 -6 -4 9 -2 21 4 27 5 5 10 16 10 23 0 24 -16 13 -33 -22 -9 -19 -24
-35 -33 -35 -8 0 -14 -6 -11 -12 2 -7 11 -12 20 -10 11 2 14 -3 10 -18 -3 -11
-9 -20 -14 -20 -5 0 -9 -6 -9 -14 0 -7 -7 -19 -15 -26 -8 -7 -15 -21 -15 -30
0 -10 -6 -21 -12 -24 -10 -5 -10 -7 -1 -12 9 -4 6 -14 -10 -37 -35 -52 -59
-77 -68 -71 -4 2 -13 -5 -19 -16 -6 -11 -7 -20 -3 -20 4 0 -3 -9 -15 -20 -27
-25 -36 -26 -22 -1 5 11 10 31 10 45 0 14 7 29 15 34 9 5 18 29 22 60 3 28 9
50 12 47 4 -2 6 12 6 31 -1 19 2 37 7 40 4 3 8 12 8 21 0 8 8 25 18 38 13 17
17 34 14 57 l-6 33 -10 -35 c-16 -53 -26 -65 -38 -49 -7 10 -8 4 -4 -18 3 -21
0 -37 -9 -47 -8 -8 -15 -22 -15 -30 0 -9 -3 -15 -7 -15 -31 5 -49 -24 -21 -33
10 -4 8 -15 -7 -46 -11 -23 -23 -42 -26 -42 -3 0 -4 -15 -3 -33 2 -17 1 -25
-2 -15 -3 9 -12 19 -20 22 -17 6 -18 1 -3 -25 7 -15 7 -24 -1 -34 -8 -9 -8
-14 0 -17 7 -2 3 -13 -10 -27 -15 -18 -23 -22 -32 -13 -8 8 -8 15 -1 24 17 21
26 58 14 58 -6 0 -11 -7 -11 -16 0 -8 -6 -22 -12 -29 -34 -37 -35 -40 -42
-107 -1 -14 -16 -40 -33 -57 -29 -28 -31 -29 -36 -11 -7 26 3 61 15 54 10 -6
38 14 38 27 0 5 -7 9 -15 9 -8 0 -15 -5 -15 -12 0 -6 -3 -8 -7 -5 -7 7 -37
-31 -38 -48 -1 -5 -6 -9 -13 -8 -14 3 -62 -58 -62 -79 0 -9 -7 -18 -15 -22 -9
-3 -15 0 -15 9 0 29 -29 15 -40 -20 -18 -53 -83 -147 -92 -132 -5 7 -8 1 -8
-16 0 -16 -4 -26 -9 -23 -5 3 -12 -1 -15 -10 -4 -12 -2 -15 9 -10 12 4 13 2 5
-13 -6 -12 -17 -17 -28 -14 -22 5 -33 -21 -22 -52 7 -19 9 -18 20 8 14 29 30
36 30 12 0 -8 -3 -15 -8 -15 -4 0 -15 -18 -25 -40 -9 -22 -24 -40 -32 -40 -8
0 -15 -6 -15 -14 0 -17 35 -31 51 -21 7 5 9 -1 7 -16 -2 -17 -10 -25 -28 -27
-35 -4 -90 -34 -91 -49 -1 -7 -2 -17 -3 -21 -2 -15 -109 -122 -122 -122 -7 0
-14 -6 -17 -12 -3 -10 -7 -10 -19 0 -11 9 -18 10 -23 2 -3 -5 -2 -10 4 -10 6
0 8 -7 4 -16 -5 -13 -7 -13 -14 -2 -7 10 -12 8 -25 -11 -16 -22 -18 -23 -30
-6 -14 19 -8 45 11 45 7 0 18 7 25 15 10 12 10 15 -1 15 -11 0 -11 2 1 10 22
14 43 12 34 -2 -4 -7 9 3 29 22 20 19 37 45 37 56 0 22 42 43 48 24 6 -18 22
0 22 25 0 14 11 32 28 45 21 17 27 31 28 61 0 32 -2 37 -13 27 -11 -9 -12 -13
-1 -19 7 -5 10 -9 6 -10 -5 -1 -12 -3 -18 -4 -5 -1 -17 -3 -25 -4 -9 0 -15 -7
-14 -14 3 -27 -2 -48 -11 -42 -5 3 -6 13 -3 21 5 14 3 14 -15 3 -11 -7 -18
-17 -15 -23 3 -5 0 -14 -8 -20 -8 -6 -21 -26 -28 -43 -18 -43 -26 -41 -27 6
-2 31 2 40 17 44 25 7 43 55 28 73 -17 21 -33 17 -46 -11 -6 -14 -7 -25 -2
-25 4 0 6 -7 3 -15 -4 -8 -10 -12 -15 -10 -5 3 -16 -3 -26 -15 -10 -11 -23
-20 -29 -20 -6 0 -17 -13 -23 -28 -13 -30 -65 -67 -80 -57 -5 3 -12 1 -15 -3
-3 -5 8 -22 25 -38 30 -29 30 -29 8 -34 -16 -4 -26 -17 -32 -39 -8 -32 -61
-95 -81 -96 -5 0 -12 -10 -17 -22 -8 -22 -2 -28 26 -24 6 1 -3 -9 -20 -23 -16
-14 -34 -25 -38 -26 -4 0 -19 -11 -31 -25 -21 -23 -23 -30 -13 -60 8 -29 8
-38 -5 -48 -8 -6 -21 -26 -29 -44 -8 -20 -16 -28 -21 -20 -8 14 -28 -33 -28
-69 0 -13 -5 -24 -11 -24 -7 0 -9 10 -7 25 3 14 2 25 -2 25 -14 0 -51 -48 -59
-76 -5 -16 -13 -28 -20 -26 -6 1 -11 -5 -11 -13 0 -9 -7 -18 -16 -22 -8 -3
-13 -12 -10 -19 3 -8 -1 -14 -10 -14 -8 0 -18 -8 -21 -17 -8 -21 -23 -33 -42
-33 -7 0 -11 6 -8 14 4 10 -2 16 -16 19 l-22 4 22 8 c13 4 23 14 23 21 0 8 5
14 10 14 6 0 10 4 10 9 0 20 -58 4 -95 -26 -43 -36 -42 -55 1 -26 18 11 25 13
20 4 -5 -8 -4 -16 3 -20 15 -10 3 -41 -15 -41 -8 0 -14 -4 -14 -10 0 -5 -4
-10 -10 -10 -5 0 -7 7 -4 15 5 11 2 13 -10 9 -9 -3 -16 -9 -16 -13 0 -4 -14
-18 -32 -31 -24 -17 -30 -19 -25 -7 9 23 -20 22 -46 -1 -19 -16 -20 -16 -8 5
10 20 9 23 -7 23 -10 0 -24 -11 -30 -25 -6 -14 -16 -25 -22 -25 -5 0 -10 -8
-10 -19 0 -10 -11 -26 -25 -35 -14 -9 -25 -21 -25 -27 0 -8 5 -7 15 1 9 7 32
13 53 14 25 1 36 5 34 14 -1 8 2 11 8 7 6 -3 8 -11 4 -16 -3 -5 -1 -15 5 -22
7 -9 4 -17 -12 -27 -19 -12 -21 -11 -10 2 19 23 4 29 -29 12 -16 -8 -33 -12
-39 -9 -20 13 -94 -49 -82 -69 4 -5 2 -6 -4 -3 -15 9 -89 -57 -114 -103 -12
-21 -27 -36 -34 -34 -7 3 -20 -2 -29 -11 -9 -9 -20 -14 -25 -10 -6 3 -13 0
-18 -7 -4 -7 -21 -20 -38 -28 -35 -18 -90 -68 -83 -75 3 -3 20 8 39 25 36 31
62 39 53 16 -3 -7 -23 -22 -44 -32 -22 -11 -40 -24 -40 -31 0 -7 -6 -16 -14
-20 -18 -11 -38 -51 -31 -63 3 -5 1 -11 -5 -15 -5 -3 -10 1 -10 9 0 26 -24 18
-66 -20 -21 -20 -33 -33 -26 -30 6 4 12 2 12 -3 0 -6 -4 -11 -10 -11 -5 0 -10
-6 -10 -13 0 -7 -16 -27 -35 -44 l-35 -31 0 -139 c1 -99 4 -143 14 -156 11
-14 15 -15 25 -3 6 7 9 21 5 29 -3 10 6 33 23 56 31 44 43 51 43 23 0 -10 4
-22 10 -28 6 -6 2 -18 -14 -35 -12 -13 -26 -38 -30 -54 -6 -23 -9 -26 -18 -14
-8 11 -9 11 -4 -3 7 -23 -19 -84 -39 -91 -11 -5 -15 -22 -15 -72 l0 -65 9600
0 9600 0 0 2081 0 2080 -22 -5 c-13 -3 -18 -3 -12 0 7 3 10 13 7 23 -2 9 3 23
11 30 12 10 16 33 16 94 0 75 -1 79 -17 66 -19 -15 -60 -39 -67 -39 -2 0 -2 9
1 20 3 11 11 20 17 20 13 0 36 55 36 87 0 17 -5 15 -39 -16 -21 -20 -36 -40
-33 -46 10 -16 1 -79 -11 -87 -7 -4 -23 -8 -35 -8 -22 0 -23 3 -17 43 4 26 3
37 -3 29 -6 -8 -18 -11 -35 -7 -21 6 -33 0 -67 -34 -39 -39 -90 -56 -90 -31 0
21 31 70 43 70 7 0 21 16 30 35 9 19 23 35 31 35 7 0 24 9 37 19 17 14 29 17
46 10 18 -7 28 -2 52 21 16 17 37 30 45 30 9 0 16 5 16 10 0 6 14 10 30 10
l30 0 0 101 c0 86 -2 100 -15 95 -9 -3 -15 0 -15 9 0 21 -40 4 -78 -34 -17
-17 -37 -31 -44 -31 -15 0 -78 -82 -78 -101 0 -6 -12 3 -26 20 -32 39 -48 39
-76 1 -17 -24 -29 -30 -60 -30 -43 0 -43 0 -23 40 18 35 53 56 67 42 10 -10
78 22 78 36 0 4 14 22 31 41 42 44 22 60 -30 25 -20 -13 -44 -24 -53 -24 -10
0 -26 -8 -36 -18 -10 -10 -34 -26 -54 -35 -21 -10 -53 -32 -72 -50 -27 -26
-38 -31 -55 -23 -14 6 -31 4 -56 -8 -47 -22 -59 -14 -40 30 17 42 41 67 65 69
10 1 28 13 41 26 24 25 53 42 75 44 15 1 44 25 44 36 0 5 -9 9 -20 9 -43 0
-17 101 29 113 16 4 22 -5 36 -49 10 -32 23 -54 31 -54 8 0 14 4 14 9 0 14 31
19 57 9 19 -6 25 -3 36 20 16 32 11 66 -8 58 -27 -10 -39 21 -26 65 15 51 33
57 72 25 17 -14 35 -26 40 -26 5 0 9 -7 9 -15 0 -39 81 -73 94 -39 10 25 7 66
-4 59 -6 -3 -13 1 -16 9 -5 13 -8 14 -28 1 -28 -19 -36 -11 -27 23 9 31 -8
182 -21 182 -4 0 -8 -4 -8 -9 0 -12 -48 -46 -77 -55 -19 -6 -23 -3 -23 13 0
48 -37 23 -73 -50 -17 -34 -72 -77 -84 -65 -3 3 -9 23 -13 45 -6 36 -4 42 16
56 13 8 24 22 24 30 0 9 11 20 25 25 14 5 25 15 25 21 0 14 45 59 84 84 14 10
26 23 26 31 0 21 41 84 54 84 19 0 56 56 56 85 0 14 5 25 11 25 8 0 8 4 0 14
-12 15 -5 46 11 46 6 0 8 -9 5 -20 -3 -11 -1 -20 4 -20 5 0 4 -9 -3 -20 -11
-17 -10 -22 1 -29 7 -5 10 -14 7 -20 -4 -6 -2 -11 4 -11 6 0 14 10 19 23 5 12
19 32 30 44 20 21 21 32 19 139 l-3 116 -26 -21 -27 -21 -6 23 c-11 41 -8 48
20 41 23 -6 25 -4 20 14 -4 12 0 34 8 51 14 26 16 129 16 852 l0 822 -48 -49
c-39 -39 -50 -58 -55 -93 -7 -53 -17 -64 -57 -63 -35 1 -39 -12 -9 -29 17 -8
23 -8 29 1 4 7 13 9 19 5 7 -4 18 -2 26 5 10 8 17 6 28 -11 9 -12 14 -26 12
-33 -2 -6 -6 -23 -9 -37 -3 -16 -22 -37 -46 -53 -22 -14 -46 -41 -54 -60 -8
-19 -26 -42 -41 -52 -14 -9 -39 -45 -56 -80 -36 -75 -56 -99 -89 -109 -42 -13
-51 -25 -44 -60 4 -21 1 -37 -8 -46 -13 -12 -48 -76 -48 -86 0 -2 10 -1 23 2
32 8 51 -16 42 -54 -3 -16 -13 -35 -21 -42 -8 -6 -14 -17 -14 -24 0 -16 -30
-43 -72 -63 -28 -15 -33 -22 -33 -54 -1 -26 -8 -44 -28 -64 -15 -15 -27 -31
-27 -36 0 -4 -11 -13 -25 -18 -23 -9 -53 -59 -70 -117 -3 -13 -14 -30 -23 -40
-17 -17 -18 -20 -21 -48 0 -8 -6 -15 -12 -15 -6 0 -31 -21 -55 -46 -27 -28
-51 -44 -59 -40 -8 3 -14 0 -12 -6 1 -6 -4 -13 -10 -15 -8 -3 -13 4 -13 16 0
39 -25 21 -50 -37 -27 -61 -32 -94 -19 -129 9 -24 39 -22 39 3 0 8 4 14 10 14
5 0 12 16 16 35 3 19 10 35 14 35 4 0 10 9 13 21 3 12 12 19 19 17 25 -9 18
-59 -25 -180 -5 -15 -12 -26 -16 -23 -4 2 -23 -9 -41 -25 -19 -16 -37 -27 -40
-24 -2 3 3 10 13 15 20 12 22 38 3 64 -13 18 -14 18 -25 -4 -10 -17 -10 -26 0
-37 8 -10 8 -14 0 -14 -6 0 -11 -11 -11 -24 0 -13 -6 -29 -14 -36 -8 -6 -12
-18 -9 -26 3 -8 0 -14 -6 -14 -6 0 -11 -5 -11 -11 0 -17 -23 -35 -53 -43 -15
-3 -27 -13 -27 -20 0 -16 -64 -74 -107 -97 -25 -14 -33 -27 -46 -80 -20 -83
-45 -150 -62 -168 -16 -16 -35 -7 -35 18 0 43 -43 53 -141 32 -48 -10 -58 -16
-70 -44 -8 -17 -24 -37 -36 -43 -13 -6 -31 -18 -42 -28 -10 -9 -22 -16 -27
-15 -31 5 -57 -5 -90 -36 -20 -19 -45 -35 -56 -35 -11 0 -34 -11 -52 -25 -41
-31 -60 -31 -88 -3 -18 18 -33 23 -69 21 -50 -2 -89 22 -89 55 0 33 53 97 74
89 7 -3 29 10 47 29 18 19 58 43 88 55 31 11 67 30 81 43 33 29 63 42 130 57
30 6 65 21 78 33 13 11 53 31 90 42 51 17 67 26 65 39 -1 18 18 45 34 45 4 1
19 10 32 20 20 17 21 23 10 36 -14 18 -66 12 -109 -12 -72 -39 -129 -58 -176
-59 -38 0 -62 -7 -93 -28 -23 -15 -46 -25 -51 -22 -5 3 -48 -33 -95 -80 -92
-91 -103 -98 -176 -109 -35 -5 -49 -3 -59 9 -18 22 -29 19 -40 -11 -7 -17 -15
-24 -25 -20 -8 3 -22 9 -30 12 -10 4 -15 0 -15 -13 0 -10 -9 -26 -20 -36 -16
-14 -25 -15 -41 -6 -16 8 -26 7 -45 -6 -13 -9 -30 -15 -37 -13 -6 1 -23 -2
-35 -6 -13 -4 -44 -5 -68 -1 -44 6 -44 6 -28 31 9 13 13 24 10 24 -13 0 25 47
49 60 39 21 53 50 43 89 -9 32 -11 33 -46 26 -20 -3 -44 -8 -52 -9 -8 -2 -26
-8 -40 -13 -14 -5 -53 -10 -87 -11 -81 -2 -98 13 -88 77 4 25 9 58 10 73 1 14
9 34 18 43 10 9 17 23 17 31 0 8 5 14 10 14 6 0 10 -9 10 -20 0 -29 36 -26 56
5 9 14 23 25 30 25 19 0 36 45 26 67 -5 13 -18 18 -45 18 -32 0 -39 -4 -52
-32 -18 -37 -31 -48 -40 -33 -8 13 -82 13 -90 0 -4 -6 -12 -7 -23 -1 -22 12
-59 -6 -66 -33 -3 -11 -22 -30 -43 -41 -21 -11 -44 -28 -51 -37 -14 -19 -43
-24 -56 -11 -4 5 -13 8 -19 8 -7 0 -13 10 -15 22 -3 17 3 24 23 29 31 8 91 75
98 110 4 23 2 25 -19 20 -17 -5 -24 -2 -24 9 0 8 -10 21 -23 29 -18 12 -30 13
-64 5 -30 -8 -45 -8 -55 0 -7 7 -21 17 -30 24 -11 8 -18 30 -21 65 -5 64 -27
92 -73 92 -18 0 -35 -6 -37 -12 -3 -7 -6 -3 -6 10 -1 12 3 22 7 22 4 0 6 16 4
35 -3 26 0 36 12 41 9 4 24 20 32 36 10 19 21 28 30 24 15 -6 78 52 133 124
19 25 41 50 49 57 19 15 6 57 -15 49 -11 -4 -13 -2 -9 9 3 8 0 28 -6 43 -6 15
-12 34 -14 42 -2 8 -14 24 -28 35 -15 12 -26 26 -26 33 0 16 -27 15 -44 0 -10
-9 -11 -20 -5 -37 12 -30 5 -38 -16 -17 -20 20 -26 20 -19 1 7 -18 -7 -20 -24
-3 -9 9 -12 7 -12 -9 0 -12 -4 -25 -10 -28 -6 -3 -10 5 -10 18 0 14 7 27 15
31 8 3 15 12 15 21 0 19 -5 19 -33 1 -31 -20 -77 -10 -77 18 -1 24 -51 67 -58
48 -6 -18 -19 -14 -25 8 -3 11 -12 20 -21 20 -9 0 -16 7 -16 15 0 8 -9 15 -20
15 -11 0 -23 7 -26 15 -4 8 -12 15 -20 15 -17 0 -17 5 -2 30 14 23 4 38 -15
22 -10 -9 -17 -8 -26 1 -11 9 -14 9 -18 0 -3 -7 -14 -13 -24 -13 -34 0 -77
-28 -93 -61 -18 -36 -21 -79 -6 -79 6 0 10 -8 10 -19 0 -10 7 -24 15 -31 8 -7
15 -17 15 -23 0 -13 78 -201 122 -296 27 -58 30 -74 29 -154 -1 -95 4 -111 56
-171 18 -22 33 -48 33 -58 0 -10 4 -18 9 -18 5 0 12 -11 15 -25 3 -13 19 -39
35 -57 39 -45 131 -229 131 -262 0 -36 22 -84 54 -121 39 -45 46 -85 45 -271
-1 -140 2 -176 16 -209 34 -77 65 -242 65 -336 -1 -58 2 -69 22 -85 41 -32 66
-77 73 -129 4 -27 11 -55 16 -61 5 -6 27 -56 49 -110 30 -73 39 -106 34 -130
-7 -40 7 -50 47 -34 19 8 28 18 25 27 -3 8 8 29 26 48 32 36 54 46 45 20 -10
-23 5 -25 48 -3 78 38 195 68 195 50 0 -14 -41 -38 -77 -46 -18 -4 -48 -18
-67 -31 -19 -13 -43 -26 -54 -29 -10 -4 -33 -29 -50 -56 -32 -52 -33 -56 -4
-41 9 5 35 10 57 12 46 3 117 37 108 52 -4 6 0 8 9 5 9 -4 44 20 93 63 110 97
125 92 31 -10 -26 -28 -36 -45 -28 -48 17 -7 15 -28 -8 -73 -19 -38 -51 -59
-110 -75 -38 -10 -80 -29 -80 -36 0 -15 26 -27 40 -19 22 14 50 12 50 -4 0 -8
-19 -25 -43 -39 -23 -14 -52 -36 -63 -50 -26 -30 -39 -93 -26 -128 8 -20 4
-41 -19 -100 -27 -69 -28 -78 -18 -128 6 -30 17 -61 25 -69 8 -7 14 -22 14
-33 0 -14 7 -19 25 -19 18 0 25 -5 25 -19 0 -11 6 -18 13 -17 28 5 91 38 121
62 17 14 80 61 140 104 81 58 113 77 122 69 15 -13 39 -1 73 35 13 14 39 28
57 32 21 4 31 11 28 19 -3 7 10 19 34 28 22 9 42 23 45 31 4 9 28 26 54 37 26
12 84 40 128 62 75 39 106 47 180 49 29 1 104 -38 105 -55 0 -4 -15 -15 -32
-23 -18 -8 -42 -20 -53 -27 -11 -6 -22 -13 -24 -14 -2 -2 1 -9 8 -16 9 -11 6
-14 -16 -15 -59 -1 -143 -30 -123 -42 11 -7 -7 -16 -148 -72 -61 -23 -88 -40
-100 -60 -18 -31 -45 -47 -35 -21 5 14 2 13 -20 -3 -14 -10 -27 -22 -27 -26 0
-5 -7 -8 -15 -8 -8 0 -15 -4 -15 -9 0 -6 -25 -18 -55 -27 -68 -22 -94 -46 -74
-70 12 -15 9 -16 -39 -9 -35 5 -52 3 -52 -4 0 -6 -9 -11 -20 -11 -23 0 -57
-27 -111 -89 -27 -30 -40 -26 -32 9 3 20 1 30 -6 30 -7 0 -10 -4 -7 -8 3 -5
-21 -24 -52 -43 -100 -60 -136 -99 -92 -99 18 0 18 -2 -7 -29 -16 -15 -48 -41
-73 -57 -37 -23 -41 -29 -25 -32 11 -2 24 -7 28 -12 12 -11 -69 -41 -89 -33
-13 5 -16 2 -11 -10 5 -13 1 -17 -17 -17 -13 0 -26 -7 -29 -14 -6 -15 17 -21
108 -28 18 -2 29 -8 28 -15 -2 -7 2 -13 8 -13 6 0 9 9 6 20 -4 17 0 20 32 20
21 0 52 -5 70 -11 25 -9 30 -15 26 -30 -5 -16 -1 -19 25 -19 l31 0 -36 -36
c-19 -19 -33 -39 -30 -45 4 -5 -1 -9 -9 -9 -9 0 -16 -9 -16 -20 0 -14 -7 -20
-22 -21 -18 0 -14 -5 18 -20 35 -16 73 -24 137 -28 4 -1 7 -8 7 -16 0 -8 8
-15 19 -15 10 0 31 -6 45 -14 l27 -14 -25 -4 c-14 -3 -23 -2 -21 2 3 5 -2 10
-9 13 -8 3 -17 1 -20 -6 -3 -9 -8 -8 -18 3 -15 18 -26 19 -137 24 -64 3 -88 0
-99 -10 -8 -8 -12 -18 -8 -21 3 -4 12 -1 18 5 16 16 25 15 32 -4 4 -12 1 -14
-14 -9 -11 4 -20 2 -20 -3 0 -15 -43 -23 -55 -10 -7 8 -5 9 7 5 12 -4 15 -2
11 9 -3 7 -16 14 -29 14 -13 0 -24 4 -24 10 0 17 -65 22 -107 7 -35 -12 -71
-14 -116 -8 -5 0 -5 5 -2 11 4 6 -5 10 -20 10 -15 0 -24 -4 -20 -10 3 -6 -1
-7 -9 -4 -24 9 -10 21 33 28 30 4 39 10 35 21 -6 14 6 19 61 27 11 2 22 14 25
28 6 25 35 45 80 54 14 3 31 14 38 26 11 18 10 20 -9 17 -12 -1 -24 4 -26 11
-3 7 1 10 10 7 14 -6 44 21 34 31 -12 12 -127 17 -127 6 0 -6 8 -9 18 -6 14 5
14 4 2 -4 -8 -6 -18 -8 -23 -5 -13 8 -59 -6 -52 -17 3 -5 -4 -15 -15 -23 -16
-11 -19 -21 -14 -42 5 -19 3 -26 -7 -25 -29 4 -61 -13 -56 -29 2 -9 -1 -21 -7
-27 -12 -11 -66 -11 -102 1 -15 5 -23 2 -28 -10 -5 -14 -1 -17 24 -13 24 4 30
1 30 -13 0 -11 -9 -19 -22 -21 -13 -2 -22 -9 -21 -15 3 -13 -57 -43 -87 -43
-12 0 -46 -11 -77 -26 -31 -14 -70 -28 -87 -31 -17 -3 -47 -17 -66 -31 -34
-24 -34 -24 -7 -18 36 8 28 -7 -11 -23 -45 -19 -38 -53 12 -65 42 -9 93 -46
65 -46 -8 0 -32 9 -54 20 -22 11 -47 20 -57 20 -9 0 -20 4 -23 10 -3 5 -12 10
-18 9 -9 0 -8 -2 1 -6 19 -8 4 -23 -24 -23 -14 0 -27 -7 -30 -15 -7 -18 -31
-20 -36 -3 -3 8 -21 12 -46 11 -23 -1 -42 2 -42 8 0 5 4 9 10 9 5 0 7 7 4 15
-4 8 -1 15 4 15 6 0 9 12 8 26 -3 29 -41 56 -67 48 -9 -2 -24 2 -32 11 -9 8
-25 15 -36 15 -11 0 -23 5 -26 11 -4 6 -1 9 8 7 8 -2 43 24 78 57 39 37 71 59
82 57 26 -5 21 -21 -13 -40 -43 -25 -37 -36 7 -12 21 11 43 20 50 20 7 0 13 3
13 8 0 4 15 15 33 25 17 10 37 29 44 42 10 23 9 25 -15 26 -49 2 -67 -2 -95
-22 -16 -12 -32 -18 -35 -14 -9 8 24 34 61 47 15 5 27 14 27 19 0 12 -5 11
-47 -6 -20 -8 -38 -13 -40 -11 -7 7 17 46 29 46 6 0 8 9 5 22 -4 15 2 33 21
57 15 20 32 45 38 57 12 22 37 54 97 120 20 22 37 46 37 53 0 6 4 11 10 11 5
0 7 -6 4 -14 -8 -21 47 -25 79 -6 15 9 24 20 20 23 -3 4 1 7 10 7 11 0 17 8
17 25 0 27 -11 32 -32 13 -15 -15 -77 -38 -101 -38 -27 0 -20 15 21 46 62 47
88 74 72 74 -37 0 -130 -25 -130 -36 0 -6 -9 -23 -20 -37 -27 -34 -25 -43 4
-24 23 16 23 15 22 -19 -2 -26 -9 -38 -27 -48 -41 -21 -79 -28 -79 -14 0 7
-21 -9 -47 -35 -25 -26 -50 -47 -55 -47 -4 0 -8 -6 -8 -13 0 -7 -16 -28 -35
-47 -19 -18 -37 -46 -40 -62 -4 -15 -12 -28 -19 -28 -16 0 -46 -32 -46 -48 0
-26 -154 -222 -175 -222 -32 0 -22 52 27 131 15 25 28 53 28 62 0 24 39 108
66 144 13 17 28 43 34 57 6 18 17 26 33 26 22 0 57 27 57 43 0 15 -18 6 -29
-16 -9 -16 -10 -17 -5 -2 16 47 17 68 4 60 -9 -6 -10 0 -5 26 7 35 27 64 58
87 9 7 17 20 17 28 0 8 5 14 10 14 6 0 10 7 10 15 0 8 8 19 19 24 20 11 57 79
53 98 -2 7 4 13 13 13 9 0 13 5 10 10 -8 13 92 148 114 155 9 3 30 22 46 42
17 20 48 55 71 78 70 69 97 118 92 167 -3 24 -1 67 5 96 8 40 7 56 -2 61 -8 5
-4 16 14 35 14 15 25 33 24 39 -1 7 1 28 5 47 4 19 9 71 11 115 2 44 9 109 15
145 5 36 13 108 16 160 l6 96 -33 36 c-30 31 -42 36 -99 43 -119 13 -165 11
-195 -10 -76 -54 -99 -60 -163 -47 l-56 12 -45 -38 c-24 -21 -49 -46 -55 -56
-20 -33 -72 -86 -85 -86 -7 0 -26 -14 -43 -30 -33 -34 -42 -36 -153 -45 -44
-3 -85 -11 -92 -17 -18 -14 -150 -48 -190 -48 -18 0 -33 4 -33 9 0 5 -42 12
-92 14 -132 7 -202 17 -206 28 -2 5 -18 9 -35 9 -24 0 -37 7 -51 29 -11 15
-35 34 -55 41 -20 7 -42 21 -49 31 -7 11 -20 19 -28 19 -8 0 -18 8 -21 18 -15
38 -42 54 -109 64 -68 10 -134 35 -134 50 0 5 -7 8 -15 8 -12 0 -51 58 -95
143 -19 38 -105 98 -144 101 -18 2 -44 11 -59 21 -18 11 -40 16 -67 13 -22 -2
-40 -1 -40 3 0 4 -12 10 -27 14 -15 3 -30 10 -33 14 -14 21 -172 141 -220 167
-55 29 -140 104 -140 123 0 6 -9 11 -20 11 -25 0 -64 27 -144 102 -33 32 -66
58 -73 58 -7 0 -17 8 -22 18 -8 16 -20 18 -72 16 -34 -2 -68 -9 -75 -15 -7 -6
-22 -8 -34 -4 -16 5 -20 15 -20 48 -1 23 -4 60 -7 82 -4 22 -6 67 -5 100 2 33
5 227 8 430 7 445 -6 636 -61 910 -21 107 -61 367 -75 488 -11 103 -24 161
-51 237 -32 93 -76 189 -103 230 -44 65 -126 144 -166 159 -19 7 -45 18 -57
23 -11 6 -27 7 -34 3 -7 -5 -10 -4 -6 2 9 15 -49 25 -126 22 -34 -1 -72 1 -84
5 -16 5 -23 3 -23 -6 0 -11 -2 -11 -9 0 -7 11 -9 11 -14 -2 -4 -9 -15 -16 -26
-16 -11 0 -22 -4 -26 -9 -7 -12 -62 -19 -175 -24 -84 -4 -142 -19 -169 -46
-10 -9 -29 -12 -58 -8 -28 3 -43 1 -43 -7 0 -6 -10 -16 -22 -21 -15 -7 -23
-19 -23 -35 0 -14 -6 -29 -12 -33 -17 -11 -16 -42 2 -76 8 -16 11 -31 8 -35
-4 -3 0 -6 8 -6 9 0 26 -10 39 -22 14 -13 40 -23 64 -26 23 -2 45 -8 51 -13 5
-5 17 -9 27 -9 21 0 24 -34 6 -77 -9 -22 -12 -24 -15 -10 -5 21 -32 22 -40 1
-10 -26 -53 -37 -73 -19 -9 8 -28 15 -43 15 -14 0 -34 8 -44 19 -10 10 -40 29
-68 41 -27 12 -84 38 -125 58 -55 25 -87 34 -118 33 -85 -4 -149 46 -250 195
-37 56 -112 124 -135 124 -5 0 -6 -26 -2 -60 7 -57 6 -59 -18 -66 -14 -3 -30
-3 -36 0 -5 3 -24 -12 -41 -34 -25 -31 -30 -44 -21 -54 9 -11 5 -19 -19 -40
-35 -29 -56 -32 -85 -13 -11 8 -42 19 -70 26 -27 7 -58 15 -68 18 -32 8 -50
68 -42 137 4 34 12 68 18 76 8 10 4 9 -9 -2 -26 -23 -73 -32 -103 -20 -16 6
-37 4 -66 -7 -36 -12 -47 -13 -74 -1 -32 13 -121 111 -121 134 0 21 98 90 182
128 64 29 96 38 139 38 71 0 169 -29 233 -70 27 -17 67 -38 90 -47 22 -9 48
-22 56 -29 44 -36 167 -9 570 126 113 38 237 74 275 80 164 26 363 15 490 -26
43 -15 140 -62 236 -115 53 -30 165 -125 268 -228 l74 -74 69 7 c39 3 78 11
88 16 10 6 30 10 44 10 14 0 28 4 31 10 3 6 16 10 28 10 12 0 42 7 67 16 25 9
77 24 115 34 39 10 90 25 115 34 25 9 52 19 60 21 8 2 40 12 70 23 30 10 100
31 155 46 55 15 135 43 177 62 43 19 86 34 97 34 11 0 35 6 53 14 47 20 141
46 166 46 11 0 23 4 26 9 3 4 20 11 38 15 18 3 56 12 83 20 28 8 91 26 140 41
50 14 99 30 110 34 11 5 40 17 64 26 151 56 385 174 504 252 23 16 56 35 72
43 17 8 55 35 85 59 30 24 75 53 100 63 74 32 153 68 195 91 22 11 72 37 110
56 107 55 190 110 264 176 38 33 111 84 164 114 53 30 113 69 134 88 21 18 41
33 45 33 3 0 30 20 59 45 29 25 60 45 70 45 9 0 16 6 15 13 0 6 3 13 8 14 5 1
12 5 15 10 9 12 79 63 87 63 4 0 40 25 80 55 40 30 76 55 79 55 2 0 16 10 30
23 26 22 118 77 165 97 13 6 27 15 30 19 5 7 51 35 170 105 25 15 53 29 63 33
9 3 17 9 17 13 0 4 24 18 53 30 28 12 59 29 67 36 64 58 89 78 115 90 17 8 37
18 45 23 89 49 132 59 175 42 27 -11 45 -3 45 19 0 10 9 22 20 25 25 8 60 -3
60 -18 0 -7 4 -6 10 3 8 13 11 13 19 1 12 -18 84 -19 106 -1 22 18 73 37 154
57 58 14 65 14 73 -1 9 -15 49 -16 108 -2 14 3 55 7 91 10 70 4 153 35 175 64
13 18 16 18 124 27 62 5 168 33 237 62 39 16 80 17 90 0 13 -19 59 -40 90 -39
15 0 49 6 76 13 41 11 55 10 101 -4 29 -9 68 -17 87 -17 19 0 40 -5 46 -11 6
-6 51 -13 100 -16 48 -3 99 -6 113 -8 14 -1 35 -3 47 -4 12 0 24 -10 28 -21 3
-11 15 -20 26 -20 19 0 19 21 19 1240 l0 1240 -5809 0 -5808 0 5 -25z m-6278
-3205 c16 0 31 -6 33 -12 4 -10 7 -10 15 0 6 9 12 6 21 -14 9 -21 16 -25 36
-20 14 4 25 2 25 -3 0 -5 10 -7 22 -3 16 4 19 2 13 -8 -6 -9 1 -21 21 -36 23
-19 26 -26 16 -36 -16 -16 -15 -29 1 -27 40 5 57 -2 54 -23 -2 -18 4 -23 27
-25 31 -2 49 -13 23 -13 -25 0 -21 -17 6 -24 21 -7 21 -7 2 -16 -18 -8 -17
-10 13 -21 38 -16 41 -26 10 -38 -24 -9 -16 -16 27 -23 11 -2 20 -10 20 -18 0
-8 -6 -14 -13 -12 -6 1 -12 -5 -12 -13 0 -8 3 -14 8 -14 24 4 31 -3 27 -32 -2
-21 1 -32 12 -36 14 -6 14 -8 -2 -19 -16 -12 -16 -14 4 -40 25 -32 27 -57 6
-78 -9 -9 -11 -17 -5 -21 5 -3 10 -1 10 4 0 6 6 11 13 11 15 0 41 -40 31 -48
-4 -4 -9 -1 -11 6 -7 17 -23 5 -23 -18 0 -10 9 -22 20 -25 11 -3 20 -13 20
-22 0 -8 -6 -13 -12 -10 -9 3 -13 -6 -14 -26 -1 -23 1 -26 8 -13 13 23 43 22
33 -1 -8 -18 -9 -32 -4 -68 1 -11 -1 -36 -4 -56 -7 -35 -6 -37 23 -43 30 -6
34 -26 4 -26 -22 0 -16 -17 9 -24 l22 -7 -22 -11 c-18 -9 -23 -20 -23 -50 0
-21 5 -38 10 -38 6 0 10 -20 10 -43 0 -31 -6 -49 -20 -62 -23 -20 -26 -41 -8
-47 20 -7 -19 -58 -43 -58 -24 0 -35 -25 -20 -44 10 -12 8 -15 -11 -18 -13 -2
-23 -10 -23 -18 0 -8 -9 -19 -21 -24 -11 -5 -25 -19 -30 -30 -11 -26 -44 -34
-44 -12 0 12 -4 14 -17 7 -21 -11 -52 -23 -72 -27 -26 -5 -71 -26 -71 -34 0
-13 -72 -29 -91 -20 -25 14 -39 12 -39 -5 0 -8 -7 -15 -15 -15 -8 0 -15 5 -15
11 0 6 -9 8 -22 3 -13 -4 -34 -9 -48 -10 -14 -1 -38 -7 -54 -13 -20 -8 -32 -9
-40 -1 -15 15 -26 12 -27 -7 0 -15 -2 -15 -8 2 -5 11 -7 23 -4 28 2 4 -1 7 -7
7 -7 0 -14 -9 -17 -20 -4 -16 -9 -18 -24 -9 -11 5 -17 14 -14 19 11 18 -18 22
-31 5 -13 -17 -15 -17 -32 -2 -23 21 -41 22 -48 2 -7 -17 -84 -22 -84 -5 0 5
10 9 21 7 12 -1 24 4 27 12 3 10 -1 12 -18 8 -25 -6 -52 1 -45 13 2 4 -8 5
-23 2 -24 -5 -24 -6 -7 -13 18 -6 19 -7 2 -14 -21 -9 -50 1 -42 15 3 5 -3 10
-14 10 -16 0 -21 -7 -21 -27 -1 -24 -2 -26 -11 -10 -7 12 -17 16 -30 12 -15
-5 -19 -1 -19 19 0 21 5 26 25 26 16 0 25 6 25 15 0 9 -9 15 -25 15 -14 0 -25
-4 -25 -8 0 -5 -18 -16 -40 -25 -23 -9 -40 -22 -40 -31 0 -9 -5 -16 -10 -16
-7 0 -7 7 0 21 13 24 5 38 -12 21 -7 -7 -21 -12 -32 -11 -12 0 -15 3 -8 6 17
7 15 30 -3 37 -10 3 -15 -1 -15 -11 0 -12 -3 -14 -10 -7 -8 8 -8 27 -2 60 l10
49 1 -40 c1 -30 4 -36 13 -27 7 7 22 12 34 12 19 0 21 4 17 37 -5 44 -11 53
-23 34 -4 -8 -15 -11 -24 -8 -20 8 -21 47 -2 47 9 0 12 7 9 20 -7 26 -23 26
-23 -1 0 -19 -5 -20 -50 -16 -54 5 -69 -10 -19 -20 17 -3 27 -9 22 -12 -5 -3
-13 -15 -18 -26 -8 -19 -9 -19 -12 3 -3 12 -9 22 -15 22 -10 0 -9 -10 7 -86 6
-26 5 -27 -8 -11 -8 9 -19 17 -25 17 -6 0 -12 10 -14 23 -2 12 -9 21 -16 20
-8 -2 -12 9 -12 31 0 19 -6 36 -12 39 -20 7 0 21 29 22 29 0 45 25 16 25 -17
1 -17 1 -1 11 10 5 18 17 18 25 0 9 7 22 15 30 8 9 15 11 15 5 0 -6 5 -11 10
-11 6 0 10 9 10 20 0 11 -6 20 -14 20 -21 0 -28 29 -12 46 8 8 19 14 23 14 5
0 18 6 28 14 17 12 16 13 -13 12 -18 0 -32 -5 -32 -9 0 -4 -11 -20 -24 -34
-17 -18 -22 -31 -17 -42 5 -9 5 -24 2 -34 -7 -18 -8 -18 -30 0 -22 18 -23 22
-12 55 7 21 20 38 31 41 15 4 20 14 20 36 0 33 8 39 28 19 9 -9 12 -8 12 5 0
13 -9 17 -35 17 -36 0 -71 24 -69 48 1 6 2 19 3 27 1 9 12 15 29 16 27 0 27 1
5 11 -21 10 -28 25 -24 56 1 6 -3 12 -9 12 -6 0 -8 5 -5 10 5 8 11 8 20 0 14
-11 17 -8 29 24 5 16 4 17 -8 6 -11 -8 -23 -9 -43 -2 l-28 10 32 7 c22 5 30
12 26 22 -5 12 -7 12 -14 1 -6 -8 -9 -1 -9 21 0 19 3 31 7 28 3 -4 13 -1 21 6
12 9 16 9 19 0 6 -18 43 -16 43 2 0 9 -9 15 -25 15 -14 0 -24 5 -22 11 1 6 -4
14 -10 16 -7 3 -13 -2 -13 -11 0 -9 -7 -16 -15 -16 -17 0 -20 26 -5 35 8 5 7
12 -1 22 -7 8 -12 32 -11 53 2 21 -2 41 -8 45 -5 3 -10 14 -10 23 1 15 2 15
15 -2 16 -21 35 -13 35 15 0 12 7 19 20 19 11 0 20 6 20 14 0 8 7 16 15 20 12
4 14 -1 10 -32 -6 -40 6 -69 24 -58 16 10 14 26 -4 26 -8 0 -15 9 -15 20 0 11
7 20 15 20 21 0 19 50 -4 78 -11 12 -24 22 -31 22 -6 0 -8 5 -4 11 4 8 9 8 17
0 6 -6 21 -11 34 -11 16 0 23 -6 23 -19 0 -10 7 -25 16 -32 11 -9 14 -23 11
-46 -4 -20 -2 -31 4 -28 5 4 9 15 9 26 0 30 57 27 63 -3 4 -20 4 -19 6 5 0 15
6 27 12 27 6 0 9 7 5 15 -4 11 2 15 27 15 23 0 28 -3 18 -9 -12 -8 -12 -13 -3
-24 7 -8 11 -23 11 -33 -4 -44 5 -55 11 -14 l7 45 1 -42 c2 -31 6 -43 17 -43
11 0 15 11 15 40 0 39 1 40 37 40 54 0 103 20 103 43 0 19 10 20 53 2 13 -5
17 -2 17 14 0 12 6 21 15 21 9 0 15 10 15 26 0 17 6 28 20 31 11 3 20 13 20
22 0 9 9 22 20 29 17 10 18 16 10 32 -9 18 -8 20 15 20 19 0 25 5 25 23 0 22
31 57 50 57 6 0 10 5 10 10 0 6 7 10 15 10 10 0 15 10 15 26 0 22 2 24 15 14
8 -6 19 -9 25 -5 6 4 17 2 24 -4 20 -17 30 16 11 35 -21 21 -19 31 10 50 24
16 26 15 46 -10 24 -30 36 -29 20 2 -6 11 -7 23 -3 27 4 4 8 0 10 -9 2 -10 14
-16 32 -16z m8227 -1376 c58 -20 93 -42 93 -59 0 -7 -16 -23 -36 -34 -30 -18
-35 -25 -28 -44 4 -12 8 -48 10 -79 1 -31 5 -62 9 -68 8 -13 -22 -50 -42 -50
-7 0 -13 -4 -13 -10 0 -5 -6 -10 -12 -10 -7 0 -24 -17 -38 -38 -14 -20 -33
-45 -44 -55 -11 -9 -24 -27 -30 -40 -8 -16 -22 -23 -51 -25 -51 -4 -170 26
-217 55 -21 13 -40 23 -42 23 -3 0 -32 26 -65 58 -33 31 -82 76 -110 100 -27
23 -56 56 -64 71 l-15 29 47 7 c96 13 174 44 223 88 67 61 122 85 219 96 96
11 140 7 206 -15z m-2747 -2208 c0 -17 55 -56 70 -50 33 14 58 14 110 -1 30
-9 102 -20 160 -25 113 -10 215 -28 242 -41 9 -5 28 -5 42 1 20 7 27 6 34 -7
7 -11 19 -14 41 -11 20 3 31 0 31 -8 0 -6 7 -17 15 -24 8 -7 15 -22 15 -34 0
-17 2 -18 10 -6 8 13 11 13 27 -2 9 -10 12 -18 6 -18 -16 0 -26 -62 -11 -72 8
-6 -1 -7 -22 -3 -34 6 -34 5 -15 -11 20 -16 20 -16 -3 -11 -12 3 -28 0 -35 -7
-7 -7 -19 -10 -27 -8 -12 4 -13 3 -2 -10 10 -13 9 -15 -11 -11 -27 5 -56 -21
-36 -33 7 -4 9 -3 6 4 -5 6 0 8 13 5 11 -3 20 -9 20 -14 0 -5 -7 -5 -17 -2
-10 4 -14 2 -10 -4 5 -7 -2 -10 -19 -8 -15 1 -31 10 -36 19 -13 24 -31 20 -18
-4 14 -25 5 -41 -18 -33 -14 6 -15 4 -5 -8 10 -12 8 -15 -13 -14 -14 0 -29 7
-34 15 -20 31 -9 -10 11 -44 24 -40 20 -46 -10 -15 -20 22 -58 22 -53 0 2 -9
-5 -12 -22 -9 -19 4 -27 0 -32 -15 -6 -19 -8 -19 -19 -4 -15 21 -25 22 -25 2
0 -9 11 -26 25 -39 33 -31 32 -35 -13 -26 -44 8 -64 3 -57 -13 3 -7 -2 -2 -11
11 -19 25 -39 30 -30 7 7 -20 -11 -19 -22 1 -6 11 -12 13 -16 6 -3 -6 -2 -13
4 -17 5 -3 10 -13 10 -22 0 -13 -3 -13 -26 2 -14 9 -29 13 -32 9 -4 -4 -1 -9
6 -11 6 -3 9 -10 6 -15 -4 -6 -3 -8 2 -5 6 3 16 -4 23 -15 12 -19 11 -20 -14
-14 -22 6 -26 4 -21 -11 4 -14 0 -18 -19 -19 -14 -1 -25 2 -25 8 0 9 -60 39
-90 44 -8 2 -20 11 -28 21 -7 10 -20 17 -29 15 -11 -3 -14 1 -9 13 7 20 -19
61 -43 68 -15 4 -19 13 -17 45 2 29 -4 47 -22 68 -22 27 -23 28 -17 5 5 -17 4
-21 -5 -16 -6 4 -10 16 -7 26 3 11 1 19 -4 19 -5 0 -9 5 -9 11 0 5 4 7 10 4 6
-4 6 4 0 21 -8 20 -8 29 1 34 8 6 8 9 0 14 -12 8 -15 46 -3 46 4 0 15 13 25
29 15 26 16 30 1 33 -13 2 -11 7 8 27 19 21 20 24 3 18 -11 -5 -22 -3 -28 5
-6 10 -7 8 -4 -4 3 -9 0 -21 -7 -27 -17 -14 -29 -2 -15 15 14 17 3 35 -16 27
-23 -8 -19 40 5 55 11 7 20 21 20 32 0 27 42 45 51 21 5 -13 8 -12 17 6 11 21
62 28 62 9z m1088 -148 c9 -9 12 -9 12 0 0 6 6 9 13 7 6 -2 25 -7 40 -9 48 -8
99 -28 146 -56 55 -32 137 -110 113 -105 -9 2 -23 4 -31 4 -7 1 -11 7 -7 16 3
9 0 15 -9 15 -8 0 -15 5 -15 10 0 6 -9 10 -19 10 -11 0 -23 5 -26 10 -10 16
-27 0 -22 -21 3 -12 -2 -20 -15 -25 -11 -3 -17 -12 -14 -19 5 -15 -20 -29 -36
-19 -5 3 -7 12 -4 20 3 8 -1 14 -10 14 -8 0 -26 11 -40 25 -14 14 -29 25 -34
25 -20 0 -41 34 -36 56 4 14 2 24 -4 24 -5 0 -10 -5 -10 -11 0 -25 -48 -52
-70 -39 -10 6 -10 15 0 44 9 30 16 36 39 36 15 0 32 -5 39 -12z m9882 -678
c17 -15 26 -17 37 -9 9 9 13 9 13 0 0 -6 -4 -11 -10 -11 -5 0 -10 -11 -10 -23
0 -13 -7 -38 -16 -56 -13 -26 -18 -30 -31 -20 -9 8 -17 9 -21 3 -16 -23 -74
-55 -89 -50 -8 4 -31 -3 -50 -14 -43 -25 -47 -25 -67 5 -15 23 -15 26 15 60
17 19 40 35 52 35 22 0 57 27 57 44 0 17 52 56 75 56 12 0 32 -9 45 -20z
m-14885 -1832 c28 -12 33 -28 10 -28 -9 0 -20 -12 -25 -26 -12 -32 -12 -34 0
-34 6 0 10 6 10 14 0 14 29 31 38 21 3 -2 -3 -7 -12 -11 -17 -6 -23 -44 -7
-44 5 0 22 15 37 33 24 28 26 29 19 8 -4 -13 -18 -34 -31 -46 -25 -23 -33 -42
-13 -29 7 4 10 1 7 -7 -3 -8 -11 -14 -18 -14 -8 0 -21 -22 -31 -50 -9 -27 -28
-61 -42 -75 -13 -14 -27 -32 -30 -40 -3 -8 -6 1 -7 20 -1 19 -4 29 -7 23 -8
-22 -23 -14 -23 11 0 22 -2 23 -25 13 -14 -7 -25 -19 -25 -28 0 -9 -9 -24 -20
-34 -13 -12 -20 -14 -20 -6 0 7 9 24 20 38 11 14 20 33 19 42 0 9 -7 1 -15
-16 -8 -18 -18 -33 -24 -33 -16 0 0 31 54 104 27 38 62 93 77 122 24 49 47 84
55 84 2 0 15 -5 29 -12z m13508 -1249 c105 -30 106 -31 77 -40 -21 -6 -18 -7
14 -6 24 1 41 -3 43 -11 4 -9 -5 -11 -37 -6 -41 7 -42 6 -31 -15 11 -19 9 -21
-14 -21 -15 0 -24 -4 -20 -10 7 -12 -73 -3 -90 10 -12 9 -108 23 -147 22 -39
-2 -35 16 5 22 75 13 151 10 142 -4 -6 -10 12 -15 80 -24 l40 -5 -42 20 c-32
15 -43 26 -43 43 0 19 -8 24 -47 33 -27 6 -38 11 -25 12 13 0 56 -8 95 -20z"/>
<path d="M16517 6616 c-3 -7 -18 -17 -34 -21 -39 -9 -65 -40 -61 -73 2 -21 -1
-27 -14 -26 -10 1 -18 -2 -18 -7 0 -5 14 -9 32 -9 36 0 28 -16 -11 -22 -24 -3
-24 -4 -7 -21 10 -10 26 -15 36 -12 10 3 25 -2 34 -10 13 -13 16 -14 16 -2 0
8 9 22 20 32 11 10 20 23 20 28 0 5 8 16 18 23 14 10 15 16 5 32 -6 11 -10 38
-8 61 3 30 1 41 -9 41 -8 0 -16 -6 -19 -14z"/>
<path d="M16777 6368 l-39 -42 -18 23 c-11 16 -23 22 -34 18 -18 -7 -21 -23
-6 -32 6 -3 10 -11 10 -16 0 -12 -73 0 -78 12 -7 17 -41 9 -52 -11 -6 -12 -21
-20 -35 -20 -20 0 -25 -5 -25 -25 0 -13 8 -29 18 -34 13 -8 10 -9 -15 -5 -29
6 -33 4 -33 -15 0 -18 -4 -21 -20 -16 -12 4 -27 1 -35 -5 -12 -10 -13 -7 -5
21 11 38 -6 58 -25 32 -7 -9 -26 -16 -43 -17 -26 -1 -32 -5 -32 -23 0 -15 -11
-27 -35 -39 -19 -9 -35 -21 -35 -27 0 -6 3 -7 7 -4 12 13 43 -26 43 -55 0 -39
32 -37 70 4 23 25 27 35 19 50 -5 10 -7 23 -4 28 7 11 54 3 70 -11 13 -12 38
-11 30 1 -10 16 24 24 52 11 19 -9 29 -9 40 1 11 9 16 9 22 -1 6 -8 10 -3 14
17 5 24 12 31 41 36 19 4 36 11 38 16 2 6 14 12 28 15 14 2 32 14 42 25 9 11
21 20 26 20 12 0 46 55 54 88 9 34 -13 27 -55 -20z"/>
<path d="M16805 6162 c-23 -21 -123 -42 -178 -37 -30 3 -40 -1 -49 -18 -18
-33 -21 -76 -6 -94 7 -9 11 -26 10 -38 -3 -21 10 -37 31 -41 4 -1 8 -2 10 -3
1 -1 16 -4 33 -6 22 -3 37 1 48 14 10 11 25 17 37 14 13 -4 19 0 19 10 0 21
49 73 77 81 34 11 52 47 46 95 -5 36 -9 41 -32 41 -15 0 -35 -8 -46 -18z"/>
<path d="M17884 6121 c-22 -9 -69 -42 -104 -73 -63 -57 -102 -73 -113 -44 -3
7 -18 16 -33 19 -23 4 -34 -2 -61 -32 -18 -20 -33 -42 -33 -48 0 -7 -5 -13
-11 -13 -5 0 -8 -4 -4 -9 3 -5 -4 -12 -15 -16 -11 -3 -25 -15 -30 -26 -6 -10
-18 -19 -28 -19 -9 0 -28 -10 -42 -23 -33 -31 -87 -57 -117 -57 -14 0 -44 -16
-69 -36 -24 -20 -50 -34 -58 -31 -33 13 -137 -59 -164 -113 -11 -23 -23 -41
-26 -40 -3 0 -6 -2 -6 -5 0 -3 0 -9 0 -15 0 -5 7 -10 16 -10 8 0 13 -4 10 -9
-5 -8 35 -31 53 -31 5 0 36 26 69 58 93 88 121 107 180 117 32 5 53 18 91 58
49 51 50 51 89 41 37 -10 39 -9 52 19 7 17 27 35 47 43 18 8 39 26 45 39 6 14
16 26 22 26 25 3 33 6 81 29 27 14 61 37 76 51 14 15 36 30 49 34 13 4 43 27
68 50 44 42 44 43 26 63 -18 19 -21 19 -60 3z"/>
<path d="M1190 3133 c-8 -2 -29 -21 -47 -41 -26 -29 -34 -34 -46 -24 -24 20
-54 1 -48 -31 1 -5 -3 -6 -8 -3 -5 4 -12 2 -16 -4 -3 -5 -15 -10 -25 -10 -20
0 -36 -17 -26 -27 3 -3 12 0 21 7 8 7 15 8 15 4 0 -5 -10 -15 -21 -23 -15 -8
-18 -15 -11 -20 7 -4 -7 -25 -38 -55 -28 -27 -50 -53 -50 -58 0 -5 -4 -7 -9
-4 -11 7 -22 -31 -14 -49 2 -8 17 -16 31 -20 19 -4 27 -12 28 -29 2 -22 0 -23
-30 -14 -17 5 -39 12 -49 15 -27 8 -44 -13 -39 -49 3 -18 10 -37 16 -41 8 -6
6 -10 -4 -14 -29 -12 -68 -63 -75 -100 -8 -36 -8 -37 -15 -13 -5 14 -8 18 -9
9 -1 -9 -19 -33 -42 -54 -22 -20 -39 -39 -36 -41 2 -2 19 9 38 26 45 39 99 41
135 4 25 -24 25 -26 9 -44 -13 -15 -22 -17 -42 -9 -35 13 -51 11 -49 -5 0 -8
-3 -15 -9 -15 -5 0 -9 7 -9 15 1 8 -4 14 -12 14 -8 0 -14 -9 -14 -20 0 -11 -9
-25 -20 -32 -11 -7 -20 -18 -20 -25 0 -7 -10 -19 -23 -28 -26 -17 -67 -87 -67
-116 0 -10 -4 -19 -10 -19 -19 0 -10 -27 13 -38 21 -10 21 -11 2 -13 -11 -1
-25 -1 -31 0 -7 1 -14 -6 -18 -14 -3 -9 -1 -15 7 -14 32 4 46 -2 40 -16 -4
-11 -16 -15 -36 -13 -29 3 -31 1 -33 -34 l-2 -36 36 21 c21 11 48 29 61 39 24
19 46 24 37 10 -12 -20 79 5 147 40 12 6 23 5 33 -3 22 -18 17 -24 -24 -24
-38 -1 -112 -29 -112 -43 0 -4 30 -8 68 -9 87 -2 82 -2 82 -12 0 -5 -44 -9
-97 -8 -53 0 -88 4 -77 8 20 7 19 9 -35 25 -8 3 -24 -4 -35 -15 -12 -10 -39
-28 -61 -40 -27 -14 -32 -20 -15 -16 20 5 22 4 9 -4 -9 -6 -31 -24 -49 -41
-26 -24 -29 -31 -16 -36 24 -9 19 -23 -11 -35 -22 -8 -24 -12 -13 -19 8 -6 11
-10 6 -10 -5 0 -3 -7 4 -15 10 -12 9 -16 -6 -22 -26 -10 -72 -53 -56 -53 6 0
12 -7 12 -15 0 -14 12 -19 33 -16 4 0 7 -5 7 -12 0 -7 -13 -18 -30 -24 -17 -6
-30 -19 -30 -28 0 -21 -38 -103 -61 -133 -10 -13 -16 -29 -13 -37 3 -7 -4 -19
-16 -25 -23 -12 -18 -33 5 -23 17 6 21 -22 4 -32 -6 -4 -8 -14 -5 -22 4 -9 2
-21 -4 -28 -13 -16 -10 -18 54 -36 27 -8 51 -20 53 -27 8 -19 21 -14 65 26 63
56 88 84 88 97 0 6 29 37 65 69 36 31 65 54 65 51 0 -4 -25 -33 -57 -66 -31
-32 -52 -59 -47 -59 6 0 27 18 49 40 21 21 42 37 46 34 4 -2 11 2 16 10 4 7
17 16 28 18 11 2 19 10 17 19 -1 9 7 24 18 34 13 11 20 14 20 6 0 -8 7 -10 19
-6 14 4 19 1 17 -12 -1 -17 -97 -83 -120 -83 -12 0 -62 -40 -141 -112 -31 -29
-37 -40 -28 -49 10 -10 18 -10 38 -1 38 17 51 15 32 -6 -21 -23 -22 -36 -3
-29 8 3 16 1 18 -5 5 -13 77 33 78 50 0 6 9 21 19 31 19 19 19 19 -17 14 -34
-6 -36 -5 -23 10 7 10 19 17 25 17 7 0 27 13 46 30 19 16 41 29 48 30 14 0
112 90 98 90 -5 0 -2 8 5 17 12 15 12 16 -3 10 -31 -11 -19 0 27 27 47 28 135
98 195 157 20 19 44 39 55 46 20 12 20 12 -1 12 -12 1 -33 -10 -48 -24 -16
-15 -35 -24 -44 -21 -10 3 -30 -3 -47 -14 -16 -11 -24 -20 -17 -20 7 0 10 -4
7 -10 -3 -5 -20 -10 -36 -10 -16 0 -55 -9 -86 -20 -61 -21 -85 -21 -31 0 89
35 141 65 185 105 35 33 43 45 29 45 -12 0 -16 5 -12 15 3 8 0 15 -5 15 -7 0
-9 -9 -6 -21 4 -13 1 -18 -6 -15 -7 3 -20 9 -29 12 -26 9 -22 20 17 43 38 22
51 50 14 31 -11 -6 -25 -10 -31 -8 -18 6 88 69 143 85 32 10 53 22 56 33 3 12
11 16 24 13 21 -6 25 -18 8 -29 -8 -4 -7 -9 2 -16 10 -6 7 -7 -9 -3 -15 4 -40
-1 -70 -16 -31 -15 -41 -24 -30 -26 9 -3 30 3 47 12 29 14 31 14 31 -2 0 -13
3 -14 12 -5 9 9 15 9 27 -1 11 -9 13 -9 8 0 -4 6 -3 14 3 18 5 3 10 1 10 -5 0
-6 20 3 45 21 25 18 45 38 45 45 0 6 17 25 37 40 65 51 104 87 99 91 -8 9 -62
-26 -109 -71 -26 -26 -52 -44 -56 -41 -5 2 -14 -2 -21 -10 -14 -17 -30 -20
-30 -6 0 5 23 23 50 41 28 18 57 42 65 53 15 22 21 102 8 110 -5 2 -3 2 4 1
21 -5 33 68 13 81 -16 10 -12 45 5 45 8 0 15 4 15 8 0 5 28 37 62 70 33 34 56
62 50 62 -6 0 -14 -4 -17 -10 -3 -5 -18 -9 -33 -7 -15 1 -27 -1 -27 -5 0 -11
-39 -37 -55 -37 -9 0 -4 6 10 14 21 12 22 14 6 15 -31 0 -136 -72 -130 -90 3
-8 2 -11 -2 -7 -4 3 -20 -3 -36 -14 -30 -21 -43 -22 -30 -3 7 11 86 66 161
111 20 13 31 23 25 23 -13 0 -126 -50 -134 -59 -3 -3 -23 -16 -45 -27 -42 -23
-57 -44 -30 -44 9 0 14 -4 10 -9 -10 -17 14 -22 37 -9 13 7 37 14 53 16 17 2
41 10 53 18 13 9 26 13 29 10 3 -3 -6 -11 -21 -17 -14 -7 -26 -16 -26 -20 0
-5 -17 -16 -37 -25 -34 -14 -50 -18 -90 -23 -8 -1 -17 -61 -9 -61 1 0 26 10
56 21 30 12 67 24 83 26 15 3 30 9 33 14 8 14 24 10 24 -5 0 -14 -36 -46 -52
-46 -4 0 -4 8 -1 17 5 13 3 15 -13 9 -81 -34 -223 -86 -233 -86 -3 0 9 10 27
21 17 12 32 25 32 29 0 12 -18 22 -22 13 -6 -15 -88 -66 -95 -59 -3 3 -1 6 5
6 7 0 12 5 12 10 0 17 -31 11 -110 -20 -60 -24 -70 -26 -50 -10 22 18 101 46
180 64 33 8 89 56 73 63 -10 3 -9 8 2 20 8 8 15 30 15 50 0 26 5 36 20 40 11
3 20 9 20 14 0 5 -7 6 -15 3 -18 -7 -20 10 -2 23 6 5 31 15 54 22 23 6 49 18
58 27 14 14 20 11 16 -10 -1 -5 6 -3 15 5 9 8 20 13 23 12 10 -4 71 20 71 28
0 4 -6 9 -12 12 -8 3 -6 7 7 12 11 4 36 22 55 40 19 17 60 49 90 69 35 24 44
28 25 11 -79 -70 -86 -78 -76 -85 6 -3 -10 -17 -37 -29 -40 -20 -44 -25 -27
-31 11 -4 22 -3 23 2 6 15 63 40 78 34 8 -3 14 -1 14 4 0 5 17 17 38 25 43 18
188 165 172 175 -6 4 2 13 17 21 38 19 50 31 50 52 0 12 -6 16 -19 11 -14 -4
-16 -1 -11 13 3 10 11 24 16 31 8 10 7 16 -4 23 -11 7 -6 16 25 44 22 19 45
35 52 35 6 0 17 7 24 15 23 27 -14 17 -55 -15 -46 -37 -57 -38 -44 -4 9 24 8
26 -6 14 -10 -8 -14 -22 -11 -36 4 -13 0 -27 -9 -34 -13 -11 -14 -10 -9 3 11
29 -32 7 -67 -34 -18 -21 -40 -39 -49 -39 -9 0 -25 -9 -35 -20 -10 -11 -13
-20 -7 -20 7 0 12 -4 12 -10 0 -5 -6 -10 -12 -10 -15 0 -75 -56 -101 -94 -10
-15 -22 -24 -27 -21 -6 3 -20 -3 -32 -15 -14 -13 -24 -16 -29 -9 -4 8 -15 6
-34 -7 -15 -10 -29 -13 -33 -8 -4 5 -18 15 -32 21 -24 11 -23 12 14 12 24 1
44 8 53 19 8 9 11 11 7 3 -5 -11 -1 -13 19 -9 15 3 24 1 21 -3 -3 -5 0 -9 5
-9 6 0 11 5 11 11 0 6 30 40 68 76 67 64 66 73 -4 46 -11 -4 -15 -3 -11 4 4 6
22 14 41 17 20 4 44 18 55 31 10 14 23 25 28 25 6 0 18 10 29 23 10 12 12 16
4 10 -18 -17 -38 -17 -22 -1 7 7 12 19 12 27 0 12 -3 12 -12 3 -7 -7 -21 -12
-31 -12 -11 0 -26 -8 -33 -17 -10 -15 -16 -16 -32 -6 -16 9 -26 8 -53 -9 -19
-11 -37 -25 -40 -30 -4 -6 -9 -6 -14 1 -5 9 -11 9 -23 -1 -13 -11 -15 -11 -11
2 3 8 42 34 87 57 93 46 156 112 145 152 -3 11 -8 21 -12 21 -4 0 -35 -18 -69
-40 -33 -22 -66 -40 -72 -40 -5 0 -10 -5 -10 -10 0 -6 -8 -13 -17 -17 -10 -3
-26 -13 -36 -21 -9 -8 -20 -12 -24 -8 -4 3 3 13 15 22 25 18 29 34 7 34 -22 0
-55 -20 -97 -59 -21 -19 -41 -32 -45 -28 -9 9 36 57 64 68 22 8 51 49 35 49
-5 0 -19 -11 -32 -25 -12 -13 -26 -22 -31 -19 -4 2 -17 -6 -28 -18 -12 -12
-21 -18 -21 -14 0 4 -17 -2 -37 -14 l-38 -22 31 29 c18 15 37 37 44 48 8 15
10 15 6 3 -7 -24 7 -22 30 4 16 18 17 21 2 15 -12 -4 -15 -2 -12 7 3 8 0 17
-6 21 -14 8 -80 -41 -80 -60 0 -9 -6 -12 -15 -8 -14 5 -14 8 1 24 9 11 13 19
7 19 -5 0 -18 -9 -27 -19 -10 -11 -24 -17 -31 -15 -7 3 -16 1 -20 -5 -3 -6
-11 -11 -17 -11 -6 0 -3 8 8 19 10 10 23 16 27 14 5 -3 26 9 47 26 44 35 62
41 35 11 -26 -29 -5 -24 32 8 l31 27 -46 2 c-26 1 -54 -1 -62 -4z"/>
<path d="M1685 2630 c-3 -5 0 -10 7 -10 8 0 6 -5 -5 -11 -9 -6 -15 -14 -12
-19 3 -5 -4 -11 -15 -15 -11 -3 -20 -10 -20 -14 0 -4 -12 -13 -26 -20 -16 -7
-24 -17 -20 -26 3 -10 0 -12 -12 -8 -9 3 -14 2 -9 -2 4 -5 -14 -22 -39 -38
-33 -20 -43 -31 -34 -37 9 -6 7 -15 -11 -39 -26 -35 -37 -35 -19 1 10 18 5 16
-23 -11 -20 -19 -33 -40 -30 -47 7 -19 19 -18 27 2 3 8 9 13 14 10 4 -2 14 -1
21 4 8 4 26 4 42 0 16 -5 28 -5 26 -2 -4 13 31 53 49 57 11 2 21 4 24 5 3 0
-3 5 -12 11 -10 5 -18 16 -18 24 0 19 79 117 90 110 12 -7 19 6 24 49 4 34 -6
48 -19 26z"/>
<path d="M210 1309 c-38 -23 -51 -39 -44 -51 3 -4 -6 -12 -20 -18 -14 -5 -26
-15 -26 -21 0 -8 -4 -8 -14 0 -12 10 -16 3 -27 -43 -6 -30 -16 -53 -20 -50 -5
3 -6 -2 -3 -10 3 -9 10 -16 15 -16 9 0 10 3 13 33 1 7 18 13 44 13 23 1 50 8
59 15 9 8 26 14 39 14 19 1 21 -2 13 -17 -5 -10 -14 -18 -18 -18 -5 0 -11 -7
-15 -15 -12 -31 44 10 62 45 9 19 23 36 31 38 9 3 11 0 6 -8 -4 -7 5 -4 19 5
29 20 49 49 39 59 -3 3 -17 6 -29 6 -13 0 -25 4 -29 9 -3 5 -19 12 -36 16 -20
5 -29 11 -25 21 7 18 8 18 -34 -7z"/>
<path d="M325 1180 c-4 -6 -10 -8 -15 -5 -5 3 -12 -7 -15 -22 -11 -53 -23 -88
-24 -70 -1 24 -13 21 -41 -8 -15 -16 -19 -25 -10 -25 10 0 9 -5 -3 -18 -10
-10 -15 -22 -12 -25 3 -4 2 -5 -2 -2 -7 6 -33 -14 -33 -26 0 -13 33 2 63 29
15 14 27 20 27 14 0 -7 7 -12 15 -12 8 0 15 -4 15 -9 0 -16 -94 -79 -153 -102
-15 -6 -27 -15 -27 -20 0 -5 -5 -9 -11 -9 -6 0 -22 -9 -36 -20 -14 -11 -34
-20 -44 -20 -11 0 -19 -4 -19 -10 0 -13 37 -13 45 0 3 5 16 15 28 22 20 10 21
10 8 -5 -21 -26 6 -21 32 6 35 36 74 57 94 51 13 -4 14 -3 5 3 -9 7 3 21 45
51 32 23 72 53 88 67 l30 25 -35 -2 c-19 -2 -38 -7 -42 -13 -4 -5 -10 -6 -14
-2 -13 12 38 58 51 47 8 -7 18 -4 30 10 10 11 13 20 7 20 -6 0 -14 -4 -17 -10
-20 -32 -37 21 -23 73 7 28 4 35 -7 17z"/>
</g>
</svg>
